<?xml version="1.0" encoding="utf-8"?>
<!-- Generator: Adobe Illustrator 22.1.0, SVG Export Plug-In . SVG Version: 6.00 Build 0)  -->
<svg version="1.1" xmlns="http://www.w3.org/2000/svg" xmlns:xlink="http://www.w3.org/1999/xlink" x="0px" y="0px"
	 viewBox="0 0 2160 2160" style="enable-background:new 0 0 2160 2160;" xml:space="preserve">
<style type="text/css">
	.st0{display:none;}
	.st1{display:inline;fill:none;stroke:#000000;stroke-miterlimit:10;}
	.st2{fill:#007BFF;}
</style>
<g id="GR" class="st0">
	
		<rect x="2066.4" y="2814.6" transform="matrix(6.123234e-17 -1 1 6.123234e-17 -748.1788 5005.8252)" class="st1" width="124.8" height="124.8"/>
	
		<rect x="2191.2" y="2814.6" transform="matrix(6.123234e-17 -1 1 6.123234e-17 -623.3524 5130.6514)" class="st1" width="124.8" height="124.8"/>
	
		<rect x="2066.4" y="2939.4" transform="matrix(6.123234e-17 -1 1 6.123234e-17 -873.0052 5255.478)" class="st1" width="249.7" height="249.7"/>
	
		<rect x="2316.1" y="2814.6" transform="matrix(-1 -1.224647e-16 1.224647e-16 -1 5006.6279 6003.6333)" class="st1" width="374.5" height="374.5"/>
	
		<rect x="2066.4" y="2190.4" transform="matrix(-1.836970e-16 1 -1 -1.836970e-16 4880.9756 124.0002)" class="st1" width="624.2" height="624.2"/>
	<rect x="1067.8" y="2190.4" class="st1" width="998.7" height="998.7"/>
	<circle class="st1" cx="390.6" cy="2689.7" r="499.3"/>
	<circle class="st1" cx="390.6" cy="2689.7" r="312.1"/>
	<circle class="st1" cx="390.6" cy="2689.7" r="187.3"/>
	<circle class="st1" cx="390.6" cy="2689.7" r="124.8"/>
	<circle class="st1" cx="390.6" cy="2689.7" r="62.4"/>
</g>
<g id="Layer_1">
	<path class="st2" d="M373.4,1143.2c-68.4,0-124,55-124.8,123.2v875.4h249.7v-249.7h249.6c0-0.5,0-1.1,0-1.6v251.3h249.7v-249.7
		c0-68.6-55.3-124.2-123.8-124.8c0,0-0.1,0-0.1,0c0,0-0.1,0-0.1,0h-1.6c0,0-0.1,0-0.1,0c-0.1,0-0.1,0-0.1,0c-0.2,0-0.4,0-0.5,0h3.2
		c68.2-0.9,123.2-56.4,123.2-124.8v-499.3H373.4z M747.9,1266.4v3.2c0-0.5,0-1.1,0-1.6C747.9,1267.5,747.9,1267,747.9,1266.4z
		 M685.5,1642.5H498.3v-249.7h187.2c34.5,0,62.4,28,62.4,62.4v124.8C747.9,1614.6,720,1642.5,685.5,1642.5z M747.9,1642.5
		c0-0.5,0-1.1,0-1.6v3.2C747.9,1643.6,747.9,1643.1,747.9,1642.5z"/>
	<path class="st2" d="M1248.9,1141.6c-68.4,0-124,55-124.8,123.2v875.4h249.7v-249.7h249.6c0-0.5,0-1.1,0-1.6v251.3H1873v-249.7
		c0-68.6-55.3-124.2-123.8-124.8c0,0-0.1,0-0.1,0c0,0-0.1,0-0.1,0h-1.6c0,0-0.1,0-0.1,0c-0.1,0-0.1,0-0.1,0c-0.2,0-0.4,0-0.5,0h3.2
		c68.2-0.9,123.2-56.4,123.2-124.8v-499.3H1248.9z M1623.4,1264.8v3.2c0-0.5,0-1.1,0-1.6C1623.3,1265.9,1623.3,1265.4,1623.4,1264.8
		z M1561,1640.9h-187.2v-249.7H1561c34.5,0,62.4,28,62.4,62.4v124.8C1623.4,1613,1595.4,1640.9,1561,1640.9z M1623.3,1640.9
		c0-0.5,0-1.1,0-1.6v3.2C1623.3,1642,1623.3,1641.5,1623.3,1640.9z"/>
	<path class="st2" d="M1372.1,768.8v-749h-124.8v0c-69,0-124.8,55.9-124.8,124.8h0v873.8h625.8c68.2-0.9,123.2-56.4,123.2-124.8
		V768.8H1372.1z M1247.3,269.4L1247.3,269.4c-0.5,0-1.1,0-1.6,0H1247.3z"/>
	<path class="st2" d="M1997.8,19.8L1997.8,19.8c-67.5,0-122.5,53.6-124.8,120.6c-0.1,1.4-0.1,2.8-0.1,4.3v0c0,1.4,0,2.9,0.1,4.3v495
		h-249.7c-68.4,0-124-55-124.8-123.2V19.8H1997.8z"/>
	<path class="st2" d="M366.3,19.7c-65,4.3-116.4,58.5-116.4,124.6v0.3h-1.4v873.8h249.7V768.7h249.6v249.7h249.7V19.7H366.3z
		 M747.9,519H498.3V331.8c0-34.5,28-62.4,62.4-62.4h187.2V519z"/>
</g>
</svg>
