<?xml version="1.0" encoding="utf-8"?>
<!-- Generator: Adobe Illustrator 22.1.0, SVG Export Plug-In . SVG Version: 6.00 Build 0)  -->
<svg version="1.1" xmlns="http://www.w3.org/2000/svg" xmlns:xlink="http://www.w3.org/1999/xlink" x="0px" y="0px"
	 viewBox="0 0 7953 2160" style="enable-background:new 0 0 7953 2160;" xml:space="preserve">
<style type="text/css">
	.st0{display:none;}
	.st1{display:inline;fill:none;stroke:#000000;stroke-miterlimit:10;}
	.st2{fill:#FFFFFF;}
</style>
<g id="GR" class="st0">
	
		<rect x="2066.4" y="2814.6" transform="matrix(6.123234e-17 -1 1 6.123234e-17 -748.1788 5005.8252)" class="st1" width="124.8" height="124.8"/>
	
		<rect x="2191.2" y="2814.6" transform="matrix(6.123234e-17 -1 1 6.123234e-17 -623.3524 5130.6514)" class="st1" width="124.8" height="124.8"/>
	
		<rect x="2066.4" y="2939.4" transform="matrix(6.123234e-17 -1 1 6.123234e-17 -873.0052 5255.478)" class="st1" width="249.7" height="249.7"/>
	
		<rect x="2316.1" y="2814.6" transform="matrix(-1 -1.224647e-16 1.224647e-16 -1 5006.6279 6003.6333)" class="st1" width="374.5" height="374.5"/>
	
		<rect x="2066.4" y="2190.4" transform="matrix(-1.836970e-16 1 -1 -1.836970e-16 4880.9756 124.0002)" class="st1" width="624.2" height="624.2"/>
	<rect x="1067.8" y="2190.4" class="st1" width="998.7" height="998.7"/>
	<circle class="st1" cx="390.6" cy="2689.7" r="499.3"/>
	<circle class="st1" cx="390.6" cy="2689.7" r="312.1"/>
	<circle class="st1" cx="390.6" cy="2689.7" r="187.3"/>
	<circle class="st1" cx="390.6" cy="2689.7" r="124.8"/>
	<circle class="st1" cx="390.6" cy="2689.7" r="62.4"/>
</g>
<g id="Layer_1">
	<g>
		<path class="st2" d="M373.4,1143.2c-68.4,0-124,55-124.8,123.2v875.4h249.7v-249.7h249.6c0-0.5,0-1.1,0-1.6v251.3h249.7v-249.7
			c0-68.6-55.3-124.2-123.8-124.8c0,0-0.1,0-0.1,0c0,0-0.1,0-0.1,0h-1.6c0,0-0.1,0-0.1,0c-0.1,0-0.1,0-0.1,0c-0.2,0-0.4,0-0.5,0h3.2
			c68.2-0.9,123.2-56.4,123.2-124.8v-499.3H373.4z M747.9,1266.4v3.2c0-0.5,0-1.1,0-1.6C747.9,1267.5,747.9,1267,747.9,1266.4z
			 M685.5,1642.5H498.3v-249.7h187.2c34.5,0,62.4,28,62.4,62.4v124.8C747.9,1614.6,720,1642.5,685.5,1642.5z M747.9,1642.5
			c0-0.5,0-1.1,0-1.6v3.2C747.9,1643.6,747.9,1643.1,747.9,1642.5z"/>
		<path class="st2" d="M1248.9,1141.6c-68.4,0-124,55-124.8,123.2v875.4h249.7v-249.7h249.6c0-0.5,0-1.1,0-1.6v251.3H1873v-249.7
			c0-68.6-55.3-124.2-123.8-124.8c0,0-0.1,0-0.1,0c0,0-0.1,0-0.1,0h-1.6c0,0-0.1,0-0.1,0c-0.1,0-0.1,0-0.1,0c-0.2,0-0.4,0-0.5,0h3.2
			c68.2-0.9,123.2-56.4,123.2-124.8v-499.3H1248.9z M1623.4,1264.8v3.2c0-0.5,0-1.1,0-1.6
			C1623.3,1265.9,1623.3,1265.4,1623.4,1264.8z M1561,1640.9h-187.2v-249.7H1561c34.5,0,62.4,28,62.4,62.4v124.8
			C1623.4,1613,1595.4,1640.9,1561,1640.9z M1623.3,1640.9c0-0.5,0-1.1,0-1.6v3.2C1623.3,1642,1623.3,1641.5,1623.3,1640.9z"/>
		<path class="st2" d="M1372.1,768.8v-749h-124.8v0c-69,0-124.8,55.9-124.8,124.8h0v873.8h625.8c68.2-0.9,123.2-56.4,123.2-124.8
			V768.8H1372.1z M1247.3,269.4L1247.3,269.4c-0.5,0-1.1,0-1.6,0H1247.3z"/>
		<path class="st2" d="M1997.8,19.8L1997.8,19.8c-67.5,0-122.5,53.6-124.8,120.6c-0.1,1.4-0.1,2.8-0.1,4.3v0c0,1.4,0,2.9,0.1,4.3
			v495h-249.7c-68.4,0-124-55-124.8-123.2V19.8H1997.8z"/>
		<path class="st2" d="M366.3,19.7c-65,4.3-116.4,58.5-116.4,124.6v0.3h-1.4v873.8h249.7V768.7h249.6v249.7h249.7V19.7H366.3z
			 M747.9,519H498.3V331.8c0-34.5,28-62.4,62.4-62.4h187.2V519z"/>
	</g>
	<g>
		<path class="st2" d="M2398.3,385.7h-180.5l-34.3,94.9h-57.1l151.9-402.8h60l151.4,402.8h-57L2398.3,385.7z M2383.2,344.4
			l-75.1-207.2L2233,344.4H2383.2z"/>
		<path class="st2" d="M2795.3,176.7c22.1,13.2,39.5,32.2,52.1,57.1c12.6,24.8,18.9,53.9,18.9,87.3c0,33.4-6.3,62.4-18.9,87
			c-12.6,24.7-30,43.6-52.1,56.8c-22.1,13.2-47.4,19.8-75.7,19.8c-31.1,0-57.3-7.9-78.9-23.6c-21.5-15.7-36.4-36.4-44.5-62V632h-53
			V161h53v81.5c8.1-25.6,23-46.3,44.5-62c21.5-15.7,47.8-23.6,78.9-23.6C2748,156.9,2773.2,163.5,2795.3,176.7z M2648.6,218.4
			c-16.7,9.5-29.7,23.2-39,41c-9.3,17.9-14,38.4-14,61.7s4.7,43.8,14,61.4c9.3,17.7,22.3,31.3,39,41c16.7,9.7,35.3,14.6,55.9,14.6
			c33,0,59.3-10.4,78.9-31.1c19.6-20.8,29.4-49.4,29.4-85.9c0-36.5-9.8-65.1-29.4-85.9c-19.6-20.8-45.9-31.1-78.9-31.1
			C2683.9,204.1,2665.3,208.8,2648.6,218.4z"/>
		<path class="st2" d="M2988.6,49.8v430.8h-53V49.8H2988.6z"/>
		<path class="st2" d="M3074.2,43.7c6.6-6,15.3-9,26.2-9c10.9,0,19.6,3,26.2,9c6.6,6,9.9,13.9,9.9,23.6c0,9.7-3.3,17.6-9.9,23.6
			c-6.6,6-15.3,9-26.2,9c-10.9,0-19.6-3-26.2-9c-6.6-6-9.9-13.9-9.9-23.6C3064.3,57.6,3067.6,49.7,3074.2,43.7z M3126.6,161v319.6
			h-53V161H3126.6z"/>
		<path class="st2" d="M3386.8,480.6l-122.3-143.8v143.8h-53V49.8h53v250.3L3385.1,161h64.6l-143.2,158.9l146.7,160.7H3386.8z"/>
		<path class="st2" d="M3709.6,180.2c21.5,15.5,36.6,36.3,45.1,62.3V161h53v319.6h-53v-81.5c-8.5,26-23.6,46.8-45.1,62.3
			c-21.5,15.5-47.8,23.3-78.9,23.3c-28.3,0-53.6-6.6-75.7-19.8c-22.1-13.2-39.5-32.1-52.1-56.8c-12.6-24.6-18.9-53.6-18.9-87
			c0-33.4,6.3-62.5,18.9-87.3c12.6-24.8,30-43.9,52.1-57.1c22.1-13.2,47.3-19.8,75.7-19.8C3661.8,156.9,3688.1,164.7,3709.6,180.2z
			 M3567.6,235.2c-19.6,20.8-29.4,49.4-29.4,85.9c0,36.5,9.8,65.1,29.4,85.9c19.6,20.8,45.7,31.1,78.3,31.1c21,0,39.7-4.8,56.2-14.6
			c16.5-9.7,29.4-23.4,38.7-41c9.3-17.7,14-38.1,14-61.4s-4.7-43.9-14-61.7c-9.3-17.8-22.2-31.5-38.7-41
			c-16.5-9.5-35.2-14.3-56.2-14.3C3613.3,204.1,3587.1,214.5,3567.6,235.2z"/>
		<path class="st2" d="M4079.3,185.2c21.9,18.8,35.2,44.2,39.9,76h-50.6c-2.3-19-10.2-34.6-23.6-46.9
			c-13.4-12.2-31.3-18.3-53.8-18.3c-19,0-33.9,4.6-44.5,13.7c-10.7,9.1-16,21.4-16,37c0,11.6,3.6,21.1,10.8,28.2
			c7.2,7.2,16.1,12.6,26.8,16.3c10.7,3.7,25.3,7.7,44,11.9c23.7,5.4,42.8,11,57.3,16.6c14.6,5.6,27,14.7,37.3,27.1
			c10.3,12.4,15.4,29.1,15.4,50.1c0,26-9.8,47.2-29.4,63.5c-19.6,16.3-45.7,24.5-78.3,24.5c-38,0-69.1-9.1-93.1-27.4
			c-24.1-18.2-38.2-43.7-42.5-76.3h51.2c1.9,19.4,10.4,35.1,25.3,47.2c14.9,12,34.6,18,59.1,18c18.2,0,32.5-4.7,42.8-14
			c10.3-9.3,15.4-21.5,15.4-36.7c0-12.4-3.7-22.3-11.1-29.7c-7.4-7.4-16.5-13-27.4-16.9c-10.9-3.9-25.8-8-44.8-12.2
			c-23.7-5.4-42.6-10.9-56.8-16.3c-14.2-5.4-26.2-14.1-36.1-25.9c-9.9-11.8-14.8-27.8-14.8-48c0-26.8,9.9-48.4,29.7-64.9
			c19.8-16.5,46.8-24.7,80.9-24.7C4028.3,156.9,4057.3,166.3,4079.3,185.2z"/>
		<path class="st2" d="M4193.7,43.7c6.6-6,15.3-9,26.2-9c10.9,0,19.6,3,26.2,9c6.6,6,9.9,13.9,9.9,23.6c0,9.7-3.3,17.6-9.9,23.6
			c-6.6,6-15.3,9-26.2,9c-10.9,0-19.6-3-26.2-9c-6.6-6-9.9-13.9-9.9-23.6C4183.8,57.6,4187,49.7,4193.7,43.7z M4246,161v319.6h-53
			V161H4246z"/>
	</g>
	<g>
		<path class="st2" d="M2171.7,977h145.5v41.3h-198.5V608h53V977z"/>
		<path class="st2" d="M2581.3,718c21.5,15.5,36.6,36.3,45.1,62.3v-81.5h53v319.6h-53v-81.5c-8.5,26-23.6,46.8-45.1,62.3
			c-21.5,15.5-47.8,23.3-78.9,23.3c-28.3,0-53.6-6.6-75.7-19.8c-22.1-13.2-39.5-32.1-52.1-56.8c-12.6-24.6-18.9-53.6-18.9-87
			c0-33.4,6.3-62.5,18.9-87.3c12.6-24.8,30-43.9,52.1-57.1c22.1-13.2,47.3-19.8,75.7-19.8C2533.4,694.7,2559.7,702.5,2581.3,718z
			 M2439.2,773c-19.6,20.8-29.4,49.4-29.4,85.9c0,36.5,9.8,65.1,29.4,85.9c19.6,20.8,45.7,31.1,78.3,31.1c21,0,39.7-4.8,56.2-14.6
			c16.5-9.7,29.4-23.4,38.7-41c9.3-17.7,14-38.1,14-61.4s-4.7-43.9-14-61.7c-9.3-17.8-22.2-31.5-38.7-41
			c-16.5-9.5-35.2-14.3-56.2-14.3C2484.9,741.9,2458.8,752.2,2439.2,773z"/>
		<path class="st2" d="M3015.8,714.5c22.1,13.2,39.5,32.2,52.1,57.1c12.6,24.8,18.9,53.9,18.9,87.3c0,33.4-6.3,62.4-18.9,87
			c-12.6,24.7-30,43.6-52.1,56.8c-22.1,13.2-47.4,19.8-75.7,19.8c-31.1,0-57.3-7.9-78.9-23.6c-21.5-15.7-36.4-36.4-44.5-62v232.9
			h-53v-471h53v81.5c8.1-25.6,23-46.3,44.5-62c21.5-15.7,47.8-23.6,78.9-23.6C2968.5,694.7,2993.7,701.3,3015.8,714.5z
			 M2869.1,756.1c-16.7,9.5-29.7,23.2-39,41c-9.3,17.9-14,38.4-14,61.7s4.7,43.8,14,61.4c9.3,17.7,22.3,31.3,39,41
			c16.7,9.7,35.3,14.6,55.9,14.6c33,0,59.3-10.4,78.9-31.1c19.6-20.8,29.4-49.4,29.4-85.9c0-36.5-9.8-65.1-29.4-85.9
			c-19.6-20.8-45.9-31.1-78.9-31.1C2904.5,741.9,2885.8,746.6,2869.1,756.1z"/>
		<path class="st2" d="M3383.5,714.5c24.3,13.2,43.3,32.2,57.1,57.1c13.8,24.8,20.7,53.9,20.7,87.3c0,33.4-6.9,62.4-20.7,87
			c-13.8,24.7-32.8,43.6-57.1,56.8c-24.3,13.2-51.7,19.8-82.4,19.8c-30.7,0-58.1-6.6-82.4-19.8c-24.3-13.2-43.4-32.1-57.3-56.8
			c-14-24.6-21-53.6-21-87c0-33.4,7-62.5,21-87.3c14-24.8,33.1-43.9,57.3-57.1c24.3-13.2,51.7-19.8,82.4-19.8
			C3331.7,694.7,3359.2,701.3,3383.5,714.5z M3248.4,754.1c-16.1,8.5-29.1,21.6-39,39.3c-9.9,17.7-14.8,39.5-14.8,65.5
			c0,25.6,4.9,47.3,14.8,64.9c9.9,17.7,22.9,30.8,39,39.3c16.1,8.5,33.7,12.8,52.7,12.8c19,0,36.6-4.3,52.7-12.8
			c16.1-8.5,29.1-21.6,39-39.3c9.9-17.7,14.8-39.3,14.8-64.9c0-26-4.9-47.8-14.8-65.5c-9.9-17.7-22.9-30.8-39-39.3
			c-16.1-8.5-33.7-12.8-52.7-12.8C3282.1,741.3,3264.5,745.6,3248.4,754.1z"/>
		<path class="st2" d="M3629.4,711.9c20.2-12.2,44.2-18.3,72.2-18.3v57.6h-16.3c-29.9,0-54.3,7.7-73.4,23
			c-19,15.3-28.5,40.7-28.5,76v168.2h-53V698.8h53v64.6C3593.9,741.3,3609.2,724.1,3629.4,711.9z"/>
		<path class="st2" d="M3963.9,718c21.5,15.5,36.6,36.3,45.1,62.3v-81.5h53v319.6h-53v-81.5c-8.5,26-23.6,46.8-45.1,62.3
			c-21.5,15.5-47.8,23.3-78.9,23.3c-28.3,0-53.6-6.6-75.7-19.8c-22.1-13.2-39.5-32.1-52.1-56.8c-12.6-24.6-18.9-53.6-18.9-87
			c0-33.4,6.3-62.5,18.9-87.3c12.6-24.8,30-43.9,52.1-57.1c22.1-13.2,47.3-19.8,75.7-19.8C3916,694.7,3942.3,702.5,3963.9,718z
			 M3821.8,773c-19.6,20.8-29.4,49.4-29.4,85.9c0,36.5,9.8,65.1,29.4,85.9c19.6,20.8,45.7,31.1,78.3,31.1c21,0,39.7-4.8,56.2-14.6
			c16.5-9.7,29.4-23.4,38.7-41c9.3-17.7,14-38.1,14-61.4s-4.7-43.9-14-61.7c-9.3-17.8-22.2-31.5-38.7-41
			c-16.5-9.5-35.2-14.3-56.2-14.3C3867.5,741.9,3841.4,752.2,3821.8,773z"/>
		<path class="st2" d="M4404.8,729.3c22.9,23.9,34.3,58.3,34.3,103.3v185.7h-53v-181c0-31.8-8.1-56.3-24.5-73.4
			c-16.3-17.1-38.4-25.6-66.4-25.6c-29.1,0-52.4,9.4-69.9,28.2c-17.5,18.8-26.2,46.3-26.2,82.4v169.4h-53V698.8h53v75.7
			c8.1-26,22.6-46,43.4-60c20.8-14,44.7-21,71.9-21C4351.9,693.5,4381.9,705.5,4404.8,729.3z"/>
		<path class="st2" d="M4979.4,608v410.4h-53.6V828.6h-208.4v189.8h-53V608h53v177.6h208.4V608H4979.4z"/>
		<path class="st2" d="M5274.3,718c21.5,15.5,36.6,36.3,45.1,62.3v-81.5h53v319.6h-53v-81.5c-8.5,26-23.6,46.8-45.1,62.3
			c-21.5,15.5-47.8,23.3-78.9,23.3c-28.3,0-53.6-6.6-75.7-19.8c-22.1-13.2-39.5-32.1-52.1-56.8c-12.6-24.6-18.9-53.6-18.9-87
			c0-33.4,6.3-62.5,18.9-87.3c12.6-24.8,30-43.9,52.1-57.1c22.1-13.2,47.3-19.8,75.7-19.8C5226.4,694.7,5252.7,702.5,5274.3,718z
			 M5132.2,773c-19.6,20.8-29.4,49.4-29.4,85.9c0,36.5,9.8,65.1,29.4,85.9c19.6,20.8,45.7,31.1,78.3,31.1c21,0,39.7-4.8,56.2-14.6
			c16.5-9.7,29.4-23.4,38.7-41c9.3-17.7,14-38.1,14-61.4s-4.7-43.9-14-61.7c-9.3-17.8-22.2-31.5-38.7-41
			c-16.5-9.5-35.2-14.3-56.2-14.3C5177.9,741.9,5151.8,752.2,5132.2,773z"/>
		<path class="st2" d="M5643.9,722.9c21.9,18.8,35.2,44.2,39.9,76h-50.6c-2.3-19-10.2-34.6-23.6-46.9
			c-13.4-12.2-31.3-18.3-53.8-18.3c-19,0-33.9,4.6-44.5,13.7c-10.7,9.1-16,21.4-16,37c0,11.6,3.6,21.1,10.8,28.2
			c7.2,7.2,16.1,12.6,26.8,16.3c10.7,3.7,25.3,7.7,44,11.9c23.7,5.4,42.8,11,57.3,16.6c14.6,5.6,27,14.7,37.3,27.1
			c10.3,12.4,15.4,29.1,15.4,50.1c0,26-9.8,47.2-29.4,63.5c-19.6,16.3-45.7,24.5-78.3,24.5c-38,0-69.1-9.1-93.1-27.4
			c-24.1-18.2-38.2-43.7-42.5-76.3h51.2c1.9,19.4,10.4,35.1,25.3,47.2c14.9,12,34.6,18,59.1,18c18.2,0,32.5-4.7,42.8-14
			c10.3-9.3,15.4-21.5,15.4-36.7c0-12.4-3.7-22.3-11.1-29.7c-7.4-7.4-16.5-13-27.4-16.9c-10.9-3.9-25.8-8-44.8-12.2
			c-23.7-5.4-42.6-10.9-56.8-16.3c-14.2-5.4-26.2-14.1-36.1-25.9c-9.9-11.8-14.8-27.8-14.8-48c0-26.8,9.9-48.4,29.7-64.9
			c19.8-16.5,46.8-24.7,80.9-24.7C5593,694.7,5622,704.1,5643.9,722.9z"/>
		<path class="st2" d="M5758.3,581.5c6.6-6,15.3-9,26.2-9c10.9,0,19.6,3,26.2,9c6.6,6,9.9,13.9,9.9,23.6c0,9.7-3.3,17.6-9.9,23.6
			c-6.6,6-15.3,9-26.2,9c-10.9,0-19.6-3-26.2-9c-6.6-6-9.9-13.9-9.9-23.6C5748.4,595.4,5751.7,587.5,5758.3,581.5z M5810.7,698.8
			v319.6h-53V698.8H5810.7z"/>
		<path class="st2" d="M5948.7,587.6v430.8h-53V587.6H5948.7z"/>
		<path class="st2" d="M6227.5,608v246.2c0,40.4,8.9,70.1,26.8,89.4c17.8,19.2,42.5,28.8,73.9,28.8c31,0,55.3-9.7,72.8-29.1
			c17.5-19.4,26.2-49.1,26.2-89.1V608h53v246.2c0,55.9-13.9,97.9-41.6,126c-27.8,28.1-64.9,42.2-111.5,42.2
			c-46.2,0-83.2-14.1-110.9-42.2c-27.8-28.1-41.6-70.1-41.6-126V608H6227.5z"/>
		<path class="st2" d="M6503.5,1123.2h22.1c14,0,24.2-3.1,30.6-9.3c6.4-6.2,9.6-16.9,9.6-32V698.8h53.6v384.8
			c0,57.4-29.1,86.2-87.3,86.2h-28.5V1123.2z M6566,628.6c-6.8-6-10.2-13.9-10.2-23.6c0-9.7,3.4-17.6,10.2-23.6c6.8-6,15.6-9,26.5-9
			c10.5,0,19,3,25.6,9c6.6,6,9.9,13.9,9.9,23.6c0,9.7-3.3,17.6-9.9,23.6c-6.6,6-15.1,9-25.6,9C6581.7,637.7,6572.8,634.7,6566,628.6
			z"/>
		<path class="st2" d="M6704.3,581.5c6.6-6,15.3-9,26.2-9c10.9,0,19.6,3,26.2,9c6.6,6,9.9,13.9,9.9,23.6c0,9.7-3.3,17.6-9.9,23.6
			c-6.6,6-15.3,9-26.2,9c-10.9,0-19.6-3-26.2-9c-6.6-6-9.9-13.9-9.9-23.6C6694.4,595.4,6697.7,587.5,6704.3,581.5z M6756.7,698.8
			v319.6h-53V698.8H6756.7z"/>
		<path class="st2" d="M7315.6,1098.1l-82.7-83.2c-19.4,5.4-39.2,8.1-59.4,8.1c-38,0-72.5-8.9-103.3-26.8
			c-30.9-17.8-55-42.8-72.5-74.8c-17.5-32-26.2-68.2-26.2-108.6c0-40.4,8.7-76.6,26.2-108.6c17.5-32,41.6-57,72.5-74.8
			c30.9-17.8,65.3-26.8,103.3-26.8c38,0,72.3,8.9,102.7,26.8c30.5,17.9,54.4,42.8,71.9,74.8c17.5,32,26.2,68.2,26.2,108.6
			c0,40.8-8.7,77.1-26.2,109.2c-17.5,32-41.5,56.8-72.2,74.2l106.5,101.9H7315.6z M7045.1,897.9c12.6,24.5,30.1,43.2,52.4,56.2
			c22.3,13,47.6,19.5,76,19.5c27.9,0,53.1-6.6,75.4-19.8c22.3-13.2,39.8-31.9,52.4-56.2c12.6-24.3,18.9-52.5,18.9-84.7
			c0-32.6-6.3-61-18.9-85.3c-12.6-24.3-30.1-42.9-52.4-55.9c-22.3-13-47.4-19.5-75.4-19.5c-28.3,0-53.7,6.5-76,19.5
			c-22.3,13-39.8,31.6-52.4,55.9c-12.6,24.3-18.9,52.7-18.9,85.3C7026.2,845.1,7032.5,873.4,7045.1,897.9z"/>
		<path class="st2" d="M7751.6,640.9c32.6,24.7,55.1,58.3,67.5,101h-55.9c-10.5-27.2-27.4-48.8-50.6-64.9
			c-23.3-16.1-51.8-24.2-85.6-24.2c-26.8,0-50.7,6.5-71.9,19.5c-21.2,13-37.8,31.6-50.1,55.9c-12.2,24.3-18.3,52.7-18.3,85.3
			c0,32.2,6.1,60.4,18.3,84.4c12.2,24.1,28.9,42.6,50.1,55.6c21.1,13,45.1,19.5,71.9,19.5c33.8,0,62.3-8,85.6-24.2
			c23.3-16.1,40.2-37.7,50.6-64.9h55.9c-12.4,42.7-34.9,76.4-67.5,101c-32.6,24.7-73.9,37-124,37c-38.4,0-72.4-8.8-101.9-26.5
			c-29.5-17.7-52.5-42.3-69-73.9c-16.5-31.6-24.7-67.6-24.7-108c0-40.8,8.2-77,24.7-108.9c16.5-31.8,39.5-56.6,69-74.2
			c29.5-17.7,63.5-26.5,101.9-26.5C7677.6,603.9,7719,616.2,7751.6,640.9z"/>
	</g>
	<g>
		<path class="st2" d="M2336.5,1584.8l-107.1-167.7h-57.6v167.7h-53v-410.4h135.1c46.6,0,81.5,11.2,104.8,33.5
			c23.3,22.3,34.9,51.9,34.9,88.8c0,33.4-9.3,60.3-27.9,80.6s-45.6,33.1-80.9,38.1l111.8,169.4H2336.5z M2171.7,1378.7h77.4
			c60.2,0,90.2-26.4,90.2-79.2c0-52.8-30.1-79.2-90.2-79.2h-77.4V1378.7z"/>
		<path class="st2" d="M2668,1284.4c21.5,15.5,36.6,36.3,45.1,62.3v-81.5h53v319.6h-53v-81.5c-8.5,26-23.6,46.8-45.1,62.3
			c-21.5,15.5-47.8,23.3-78.9,23.3c-28.3,0-53.6-6.6-75.7-19.8c-22.1-13.2-39.5-32.1-52.1-56.8c-12.6-24.6-18.9-53.6-18.9-87
			c0-33.4,6.3-62.5,18.9-87.3c12.6-24.8,30-43.9,52.1-57.1c22.1-13.2,47.3-19.8,75.7-19.8C2620.2,1261.1,2646.5,1268.9,2668,1284.4z
			 M2526,1339.4c-19.6,20.8-29.4,49.4-29.4,85.9c0,36.5,9.8,65.1,29.4,85.9c19.6,20.8,45.7,31.1,78.3,31.1c21,0,39.7-4.8,56.2-14.6
			c16.5-9.7,29.4-23.4,38.7-41c9.3-17.7,14-38.1,14-61.4s-4.7-43.9-14-61.7c-9.3-17.8-22.2-31.5-38.7-41
			c-16.5-9.5-35.2-14.3-56.2-14.3C2571.7,1308.2,2545.6,1318.6,2526,1339.4z"/>
		<path class="st2" d="M3060.4,1284.4c21.5,15.5,36.6,36.3,45.1,62.3V1154h53v430.8h-53v-81.5c-8.5,26-23.6,46.8-45.1,62.3
			c-21.5,15.5-47.8,23.3-78.9,23.3c-28.3,0-53.6-6.6-75.7-19.8c-22.1-13.2-39.5-32.1-52.1-56.8c-12.6-24.6-18.9-53.6-18.9-87
			c0-33.4,6.3-62.5,18.9-87.3c12.6-24.8,30-43.9,52.1-57.1c22.1-13.2,47.3-19.8,75.7-19.8
			C3012.5,1261.1,3038.8,1268.9,3060.4,1284.4z M2918.3,1339.4c-19.6,20.8-29.4,49.4-29.4,85.9c0,36.5,9.8,65.1,29.4,85.9
			c19.6,20.8,45.7,31.1,78.3,31.1c21,0,39.7-4.8,56.2-14.6c16.5-9.7,29.4-23.4,38.7-41c9.3-17.7,14-38.1,14-61.4s-4.7-43.9-14-61.7
			c-9.3-17.8-22.2-31.5-38.7-41c-16.5-9.5-35.2-14.3-56.2-14.3C2964,1308.2,2937.9,1318.6,2918.3,1339.4z"/>
		<path class="st2" d="M3243.5,1147.9c6.6-6,15.3-9,26.2-9c10.9,0,19.6,3,26.2,9c6.6,6,9.9,13.9,9.9,23.6c0,9.7-3.3,17.6-9.9,23.6
			c-6.6,6-15.3,9-26.2,9c-10.9,0-19.6-3-26.2-9c-6.6-6-9.9-13.9-9.9-23.6C3233.6,1161.7,3236.9,1153.9,3243.5,1147.9z
			 M3295.9,1265.2v319.6h-53v-319.6H3295.9z"/>
		<path class="st2" d="M3608.2,1280.9c24.3,13.2,43.3,32.2,57.1,57.1c13.8,24.8,20.7,53.9,20.7,87.3c0,33.4-6.9,62.4-20.7,87
			c-13.8,24.7-32.8,43.6-57.1,56.8c-24.3,13.2-51.7,19.8-82.4,19.8c-30.7,0-58.1-6.6-82.4-19.8c-24.3-13.2-43.4-32.1-57.3-56.8
			c-14-24.6-21-53.6-21-87c0-33.4,7-62.5,21-87.3c14-24.8,33.1-43.9,57.3-57.1c24.3-13.2,51.7-19.8,82.4-19.8
			C3556.5,1261.1,3583.9,1267.7,3608.2,1280.9z M3473.1,1320.5c-16.1,8.5-29.1,21.6-39,39.3c-9.9,17.7-14.8,39.5-14.8,65.5
			c0,25.6,4.9,47.3,14.8,64.9c9.9,17.7,22.9,30.8,39,39.3c16.1,8.5,33.7,12.8,52.7,12.8c19,0,36.6-4.3,52.7-12.8
			c16.1-8.5,29.1-21.6,39-39.3c9.9-17.7,14.8-39.3,14.8-64.9c0-26-4.9-47.8-14.8-65.5c-9.9-17.7-22.9-30.8-39-39.3
			c-16.1-8.5-33.7-12.8-52.7-12.8C3506.8,1307.7,3489.2,1311.9,3473.1,1320.5z"/>
		<path class="st2" d="M3755.7,1147.9c6.6-6,15.3-9,26.2-9c10.9,0,19.6,3,26.2,9c6.6,6,9.9,13.9,9.9,23.6c0,9.7-3.3,17.6-9.9,23.6
			c-6.6,6-15.3,9-26.2,9c-10.9,0-19.6-3-26.2-9c-6.6-6-9.9-13.9-9.9-23.6C3745.9,1161.7,3749.1,1153.9,3755.7,1147.9z
			 M3808.1,1265.2v319.6h-53v-319.6H3808.1z"/>
		<path class="st2" d="M4080.3,1289.3c21.9,18.8,35.2,44.2,39.9,76h-50.6c-2.3-19-10.2-34.6-23.6-46.9
			c-13.4-12.2-31.3-18.3-53.8-18.3c-19,0-33.9,4.6-44.5,13.7c-10.7,9.1-16,21.4-16,37c0,11.6,3.6,21.1,10.8,28.2
			c7.2,7.2,16.1,12.6,26.8,16.3c10.7,3.7,25.3,7.7,44,11.9c23.7,5.4,42.8,11,57.3,16.6c14.6,5.6,27,14.7,37.3,27.1
			c10.3,12.4,15.4,29.1,15.4,50.1c0,26-9.8,47.2-29.4,63.5c-19.6,16.3-45.7,24.5-78.3,24.5c-38,0-69.1-9.1-93.1-27.4
			c-24.1-18.2-38.2-43.7-42.5-76.3h51.2c1.9,19.4,10.4,35.1,25.3,47.2c14.9,12,34.6,18,59.1,18c18.2,0,32.5-4.7,42.8-14
			c10.3-9.3,15.4-21.5,15.4-36.7c0-12.4-3.7-22.3-11.1-29.7c-7.4-7.4-16.5-13-27.4-16.9c-10.9-3.9-25.8-8-44.8-12.2
			c-23.7-5.4-42.6-10.9-56.8-16.3c-14.2-5.4-26.2-14.1-36.1-25.9c-9.9-11.8-14.8-27.8-14.8-48c0-26.8,9.9-48.4,29.7-64.9
			c19.8-16.5,46.8-24.7,80.9-24.7C4029.4,1261.1,4058.4,1270.5,4080.3,1289.3z"/>
		<path class="st2" d="M4421.4,1280.9c24.3,13.2,43.3,32.2,57.1,57.1c13.8,24.8,20.7,53.9,20.7,87.3c0,33.4-6.9,62.4-20.7,87
			c-13.8,24.7-32.8,43.6-57.1,56.8c-24.3,13.2-51.7,19.8-82.4,19.8c-30.7,0-58.1-6.6-82.4-19.8c-24.3-13.2-43.4-32.1-57.3-56.8
			c-14-24.6-21-53.6-21-87c0-33.4,7-62.5,21-87.3c14-24.8,33.1-43.9,57.3-57.1c24.3-13.2,51.7-19.8,82.4-19.8
			C4369.7,1261.1,4397.2,1267.7,4421.4,1280.9z M4286.4,1320.5c-16.1,8.5-29.1,21.6-39,39.3c-9.9,17.7-14.8,39.5-14.8,65.5
			c0,25.6,4.9,47.3,14.8,64.9c9.9,17.7,22.9,30.8,39,39.3c16.1,8.5,33.7,12.8,52.7,12.8c19,0,36.6-4.3,52.7-12.8
			c16.1-8.5,29.1-21.6,39-39.3c9.9-17.7,14.8-39.3,14.8-64.9c0-26-4.9-47.8-14.8-65.5c-9.9-17.7-22.9-30.8-39-39.3
			c-16.1-8.5-33.7-12.8-52.7-12.8C4320,1307.7,4302.5,1311.9,4286.4,1320.5z"/>
		<path class="st2" d="M4720.9,1538.2v46.6h-39.6c-32.6,0-57-7.8-73.1-23.3c-16.1-15.5-24.2-41.5-24.2-78v-172.3h-47.7v-46h47.7
			v-79.8h53.6v79.8h82.7v46h-82.7v173.5c0,20.6,3.8,34.6,11.4,42.2c7.6,7.6,20.7,11.4,39.3,11.4H4720.9z"/>
		<path class="st2" d="M5012.9,1280.9c24.3,13.2,43.3,32.2,57.1,57.1c13.8,24.8,20.7,53.9,20.7,87.3c0,33.4-6.9,62.4-20.7,87
			c-13.8,24.7-32.8,43.6-57.1,56.8c-24.3,13.2-51.7,19.8-82.4,19.8c-30.7,0-58.1-6.6-82.4-19.8c-24.3-13.2-43.4-32.1-57.3-56.8
			c-14-24.6-21-53.6-21-87c0-33.4,7-62.5,21-87.3c14-24.8,33.1-43.9,57.3-57.1c24.3-13.2,51.7-19.8,82.4-19.8
			C4961.2,1261.1,4988.6,1267.7,5012.9,1280.9z M4877.8,1320.5c-16.1,8.5-29.1,21.6-39,39.3c-9.9,17.7-14.8,39.5-14.8,65.5
			c0,25.6,4.9,47.3,14.8,64.9c9.9,17.7,22.9,30.8,39,39.3c16.1,8.5,33.7,12.8,52.7,12.8c19,0,36.6-4.3,52.7-12.8
			c16.1-8.5,29.1-21.6,39-39.3c9.9-17.7,14.8-39.3,14.8-64.9c0-26-4.9-47.8-14.8-65.5c-9.9-17.7-22.9-30.8-39-39.3
			c-16.1-8.5-33.7-12.8-52.7-12.8C4911.5,1307.7,4893.9,1311.9,4877.8,1320.5z"/>
		<path class="st2" d="M5411.9,1280.9c22.1,13.2,39.5,32.2,52.1,57.1c12.6,24.8,18.9,53.9,18.9,87.3c0,33.4-6.3,62.4-18.9,87
			c-12.6,24.7-30,43.6-52.1,56.8c-22.1,13.2-47.4,19.8-75.7,19.8c-31.1,0-57.3-7.9-78.9-23.6c-21.5-15.7-36.4-36.4-44.5-62v232.9
			h-53v-471h53v81.5c8.1-25.6,23-46.3,44.5-62c21.5-15.7,47.8-23.6,78.9-23.6C5364.6,1261.1,5389.8,1267.7,5411.9,1280.9z
			 M5265.2,1322.5c-16.7,9.5-29.7,23.2-39,41c-9.3,17.9-14,38.4-14,61.7s4.7,43.8,14,61.4c9.3,17.7,22.3,31.3,39,41
			c16.7,9.7,35.3,14.6,55.9,14.6c33,0,59.3-10.4,78.9-31.1c19.6-20.8,29.4-49.4,29.4-85.9c0-36.5-9.8-65.1-29.4-85.9
			c-19.6-20.8-45.9-31.1-78.9-31.1C5300.6,1308.2,5281.9,1313,5265.2,1322.5z"/>
		<path class="st2" d="M5992.3,1584.8l-89.7-99c0,6.2-1.2,14-3.5,23.3c-4.3,23.7-15.7,42.9-34.3,57.6
			c-18.6,14.8-41.1,22.1-67.5,22.1c-24.1,0-45.4-5.1-64-15.4c-18.6-10.3-33.2-24.6-43.7-43.1c-10.5-18.4-15.7-39.7-15.7-63.7
			c0-24.1,4.7-44.9,14.3-62.6c9.5-17.7,22.2-31,38.1-40.2c15.9-9.1,33.6-13.7,53-13.7c3.1,0,7.4,0.4,12.8,1.2l-8.7-11.1
			c-10.9-13.2-19.1-25.7-24.7-37.5c-5.6-11.8-8.4-25.7-8.4-41.6c0-15.9,4-30.8,11.9-44.5c8-13.8,19.9-24.9,35.8-33.5
			c15.9-8.5,34.9-12.8,57.1-12.8c33.4,0,58.9,8.4,76.6,25c17.7,16.7,28,37.6,31.1,62.9c2.3,8.5,3.5,17.3,3.5,26.2
			c0,3.9-0.2,6.8-0.6,8.7h-50.1c0.4-2.7,0.5-5.9,0.3-9.6c-0.2-3.7-0.3-6.3-0.3-7.9c-0.4-19.4-5.8-34.4-16.3-45.1
			c-10.5-10.7-25-16-43.7-16c-17.1,0-30.6,5-40.5,15.1c-9.9,10.1-14.8,22.3-14.8,36.7c0,12,2.2,22.3,6.7,30.9
			c4.5,8.5,11.7,18.6,21.8,30.3l217.7,257.3H5992.3z M5850,1523.1c13.8-13.6,20.7-31,20.7-52.4c0-14.7-3.9-28.1-11.6-40.2
			c-7.8-12-17.9-21.5-30.3-28.5c-12.4-7-25.4-10.5-39-10.5c-20.2,0-36.8,6.4-49.8,19.2c-13,12.8-19.5,31.1-19.5,54.7
			c0,24.1,7.4,43.1,22.1,57.1c14.7,14,33,21,54.7,21C5818.7,1543.4,5836.2,1536.6,5850,1523.1z"/>
	</g>
	<g>
		<path class="st2" d="M2336.5,2121.3l-107.1-167.7h-57.6v167.7h-53v-410.4h135.1c46.6,0,81.5,11.2,104.8,33.5
			c23.3,22.3,34.9,51.9,34.9,88.8c0,33.4-9.3,60.3-27.9,80.6s-45.6,33.1-80.9,38.1l111.8,169.4H2336.5z M2171.7,1915.3h77.4
			c60.2,0,90.2-26.4,90.2-79.2c0-52.8-30.1-79.2-90.2-79.2h-77.4V1915.3z"/>
		<path class="st2" d="M2668,1821c21.5,15.5,36.6,36.3,45.1,62.3v-81.5h53v319.6h-53v-81.5c-8.5,26-23.6,46.8-45.1,62.3
			c-21.5,15.5-47.8,23.3-78.9,23.3c-28.3,0-53.6-6.6-75.7-19.8c-22.1-13.2-39.5-32.1-52.1-56.8c-12.6-24.6-18.9-53.6-18.9-87
			c0-33.4,6.3-62.5,18.9-87.3c12.6-24.8,30-43.9,52.1-57.1c22.1-13.2,47.3-19.8,75.7-19.8C2620.2,1797.7,2646.5,1805.4,2668,1821z
			 M2526,1876c-19.6,20.8-29.4,49.4-29.4,85.9c0,36.5,9.8,65.1,29.4,85.9c19.6,20.8,45.7,31.1,78.3,31.1c21,0,39.7-4.8,56.2-14.6
			c16.5-9.7,29.4-23.4,38.7-41c9.3-17.7,14-38.1,14-61.4s-4.7-43.9-14-61.7c-9.3-17.8-22.2-31.5-38.7-41
			c-16.5-9.5-35.2-14.3-56.2-14.3C2571.7,1844.8,2545.6,1855.2,2526,1876z"/>
		<path class="st2" d="M3060.4,1821c21.5,15.5,36.6,36.3,45.1,62.3v-192.7h53v430.8h-53v-81.5c-8.5,26-23.6,46.8-45.1,62.3
			c-21.5,15.5-47.8,23.3-78.9,23.3c-28.3,0-53.6-6.6-75.7-19.8c-22.1-13.2-39.5-32.1-52.1-56.8c-12.6-24.6-18.9-53.6-18.9-87
			c0-33.4,6.3-62.5,18.9-87.3c12.6-24.8,30-43.9,52.1-57.1c22.1-13.2,47.3-19.8,75.7-19.8C3012.5,1797.7,3038.8,1805.4,3060.4,1821z
			 M2918.3,1876c-19.6,20.8-29.4,49.4-29.4,85.9c0,36.5,9.8,65.1,29.4,85.9c19.6,20.8,45.7,31.1,78.3,31.1c21,0,39.7-4.8,56.2-14.6
			c16.5-9.7,29.4-23.4,38.7-41c9.3-17.7,14-38.1,14-61.4s-4.7-43.9-14-61.7c-9.3-17.8-22.2-31.5-38.7-41
			c-16.5-9.5-35.2-14.3-56.2-14.3C2964,1844.8,2937.9,1855.2,2918.3,1876z"/>
		<path class="st2" d="M3243.5,1684.4c6.6-6,15.3-9,26.2-9c10.9,0,19.6,3,26.2,9c6.6,6,9.9,13.9,9.9,23.6c0,9.7-3.3,17.6-9.9,23.6
			c-6.6,6-15.3,9-26.2,9c-10.9,0-19.6-3-26.2-9c-6.6-6-9.9-13.9-9.9-23.6C3233.6,1698.3,3236.9,1690.5,3243.5,1684.4z
			 M3295.9,1801.8v319.6h-53v-319.6H3295.9z"/>
		<path class="st2" d="M3608.2,1817.5c24.3,13.2,43.3,32.2,57.1,57.1c13.8,24.8,20.7,53.9,20.7,87.3c0,33.4-6.9,62.4-20.7,87
			c-13.8,24.7-32.8,43.6-57.1,56.8c-24.3,13.2-51.7,19.8-82.4,19.8c-30.7,0-58.1-6.6-82.4-19.8c-24.3-13.2-43.4-32.1-57.3-56.8
			c-14-24.6-21-53.6-21-87c0-33.4,7-62.5,21-87.3c14-24.8,33.1-43.9,57.3-57.1c24.3-13.2,51.7-19.8,82.4-19.8
			C3556.5,1797.7,3583.9,1804.3,3608.2,1817.5z M3473.1,1857.1c-16.1,8.5-29.1,21.6-39,39.3c-9.9,17.7-14.8,39.5-14.8,65.5
			c0,25.6,4.9,47.3,14.8,64.9c9.9,17.7,22.9,30.8,39,39.3c16.1,8.5,33.7,12.8,52.7,12.8c19,0,36.6-4.3,52.7-12.8
			c16.1-8.5,29.1-21.6,39-39.3c9.9-17.7,14.8-39.3,14.8-64.9c0-26-4.9-47.8-14.8-65.5c-9.9-17.7-22.9-30.8-39-39.3
			c-16.1-8.5-33.7-12.8-52.7-12.8C3506.8,1844.2,3489.2,1848.5,3473.1,1857.1z"/>
		<path class="st2" d="M3837.5,1740.6c-11.1,10.1-16.6,27.6-16.6,52.4v8.7h75.7v46.6h-75.7v273h-53v-273h-46v-46.6h46v-12.8
			c0-76.5,42.9-112.9,128.7-109.4v46.6C3868.3,1725.7,3848.6,1730.5,3837.5,1740.6z"/>
		<path class="st2" d="M4164.1,1821c21.5,15.5,36.6,36.3,45.1,62.3v-81.5h53v319.6h-53v-81.5c-8.5,26-23.6,46.8-45.1,62.3
			c-21.5,15.5-47.8,23.3-78.9,23.3c-28.3,0-53.6-6.6-75.7-19.8c-22.1-13.2-39.5-32.1-52.1-56.8c-12.6-24.6-18.9-53.6-18.9-87
			c0-33.4,6.3-62.5,18.9-87.3c12.6-24.8,30-43.9,52.1-57.1c22.1-13.2,47.3-19.8,75.7-19.8C4116.3,1797.7,4142.6,1805.4,4164.1,1821z
			 M4022.1,1876c-19.6,20.8-29.4,49.4-29.4,85.9c0,36.5,9.8,65.1,29.4,85.9c19.6,20.8,45.7,31.1,78.3,31.1c21,0,39.7-4.8,56.2-14.6
			c16.5-9.7,29.4-23.4,38.7-41c9.3-17.7,14-38.1,14-61.4s-4.7-43.9-14-61.7c-9.3-17.8-22.2-31.5-38.7-41
			c-16.5-9.5-35.2-14.3-56.2-14.3C4067.8,1844.8,4041.7,1855.2,4022.1,1876z"/>
		<path class="st2" d="M4445.6,1814.8c20.2-12.2,44.2-18.3,72.2-18.3v57.6h-16.3c-29.9,0-54.3,7.7-73.4,23
			c-19,15.3-28.5,40.7-28.5,76v168.2h-53v-319.6h53v64.6C4410.1,1844.2,4425.4,1827.1,4445.6,1814.8z"/>
		<path class="st2" d="M5053.1,1832.3c22.7,23.9,34.1,58.3,34.1,103.3v185.7h-53v-181c0-31.4-7.7-55.5-23-72.2
			c-15.3-16.7-36.4-25-63.2-25c-27.9,0-50.4,9.2-67.2,27.7c-16.9,18.4-25.3,45.5-25.3,81.2v169.4h-53v-181
			c0-31.4-7.8-55.5-23.3-72.2c-15.5-16.7-36.5-25-62.9-25c-28.3,0-50.9,9.2-67.8,27.7c-16.9,18.4-25.3,45.5-25.3,81.2v169.4h-53
			v-319.6h53v72.8c7.8-25.2,21.6-44.5,41.6-57.9c20-13.4,43-20.1,69-20.1c27.2,0,50.7,6.9,70.7,20.7c20,13.8,34.2,34.1,42.8,60.8
			c8.9-26,23.9-46.1,44.8-60.3c21-14.2,44.6-21.2,71-21.2C5000.4,1796.5,5030.4,1808.4,5053.1,1832.3z"/>
		<path class="st2" d="M5379.1,1821c21.5,15.5,36.6,36.3,45.1,62.3v-81.5h53v319.6h-53v-81.5c-8.5,26-23.6,46.8-45.1,62.3
			c-21.5,15.5-47.8,23.3-78.9,23.3c-28.3,0-53.6-6.6-75.7-19.8c-22.1-13.2-39.5-32.1-52.1-56.8c-12.6-24.6-18.9-53.6-18.9-87
			c0-33.4,6.3-62.5,18.9-87.3c12.6-24.8,30-43.9,52.1-57.1c22.1-13.2,47.3-19.8,75.7-19.8C5331.2,1797.7,5357.5,1805.4,5379.1,1821z
			 M5237,1876c-19.6,20.8-29.4,49.4-29.4,85.9c0,36.5,9.8,65.1,29.4,85.9c19.6,20.8,45.7,31.1,78.3,31.1c21,0,39.7-4.8,56.2-14.6
			c16.5-9.7,29.4-23.4,38.7-41c9.3-17.7,14-38.1,14-61.4s-4.7-43.9-14-61.7c-9.3-17.8-22.2-31.5-38.7-41
			c-16.5-9.5-35.2-14.3-56.2-14.3C5282.7,1844.8,5256.6,1855.2,5237,1876z"/>
		<path class="st2" d="M5736.8,2121.3l-122.3-143.8v143.8h-53v-430.8h53v250.3l120.5-139.1h64.6l-143.2,158.9l146.7,160.7H5736.8z"
			/>
		<path class="st2" d="M6059.6,1821c21.5,15.5,36.6,36.3,45.1,62.3v-81.5h53v319.6h-53v-81.5c-8.5,26-23.6,46.8-45.1,62.3
			c-21.5,15.5-47.8,23.3-78.9,23.3c-28.3,0-53.6-6.6-75.7-19.8c-22.1-13.2-39.5-32.1-52.1-56.8c-12.6-24.6-18.9-53.6-18.9-87
			c0-33.4,6.3-62.5,18.9-87.3c12.6-24.8,30-43.9,52.1-57.1c22.1-13.2,47.3-19.8,75.7-19.8C6011.7,1797.7,6038,1805.4,6059.6,1821z
			 M5917.5,1876c-19.6,20.8-29.4,49.4-29.4,85.9c0,36.5,9.8,65.1,29.4,85.9c19.6,20.8,45.7,31.1,78.3,31.1c21,0,39.7-4.8,56.2-14.6
			c16.5-9.7,29.4-23.4,38.7-41c9.3-17.7,14-38.1,14-61.4s-4.7-43.9-14-61.7c-9.3-17.8-22.2-31.5-38.7-41
			c-16.5-9.5-35.2-14.3-56.2-14.3C5963.2,1844.8,5937.1,1855.2,5917.5,1876z"/>
	</g>
	<g>
	</g>
	<g>
	</g>
	<g>
	</g>
	<g>
	</g>
	<g>
	</g>
</g>
</svg>
