<?xml version="1.0" encoding="utf-8"?>
<!-- Generator: Adobe Illustrator 22.1.0, SVG Export Plug-In . SVG Version: 6.00 Build 0)  -->
<svg version="1.1" id="_x39_af98f83-10c5-4067-bc84-20554b2827d8"
	 xmlns="http://www.w3.org/2000/svg" xmlns:xlink="http://www.w3.org/1999/xlink" x="0px" y="0px" viewBox="0 0 1009.5 789.9"
	 style="enable-background:new 0 0 1009.5 789.9;" xml:space="preserve">
<style type="text/css">
	.st0{opacity:0.1;fill:#007BFF;enable-background:new    ;}
	.st1{opacity:0.1;fill:#007BFF;}
	.st2{fill:#2F2E41;}
	.st3{fill:#007BFF;}
	.st4{fill:none;stroke:#3F3D56;stroke-miterlimit:10;}
	.st5{fill:#57B894;}
	.st6{opacity:0.1;enable-background:new    ;}
	.st7{fill:#EFB7B9;}
	.st8{opacity:5.000000e-02;enable-background:new    ;}
	.st9{opacity:0.1;fill:#FFFFFF;enable-background:new    ;}
</style>
<title>empty</title>
<path class="st0" d="M589.5,160.3c-64.7-2.2-126.4-23.1-185.2-46S287.1,66.1,223.9,54c-40.6-7.8-87.1-8.9-119.8,12.9
	c-31.5,21-41.7,57.1-47.2,90.7c-4.1,25.3-6.5,51.9,4.7,75.5c7.8,16.4,21.7,30.2,31.4,45.9c33.5,54.7,9.8,122.2-26.4,175.6
	c-17,25.1-36.8,49-49.9,75.6C3.6,557-2.5,587.6,9,614.9c11.4,27,38.5,47.2,67.9,61.5c59.7,29,130,37.2,198.6,41.9
	c151.8,10.4,304.5,5.9,456.7,1.4c56.3-1.7,112.9-3.3,168.3-12.1c30.8-4.8,62.6-12.5,84.9-31.1c28.4-23.5,35.4-63.4,16.4-92.9
	c-31.9-49.5-120-61.8-142.3-114.9c-12.3-29.2,0.3-61.8,18.2-88.9c38.2-58.2,102.3-109.2,105.7-175.7c2.3-45.7-28.5-91.4-76.1-113
	c-49.9-22.7-119.2-19.8-156,17.7C713.3,147.4,646.6,162.3,589.5,160.3z"/>
<g>
	<ellipse class="st1" cx="616.7" cy="546.5" rx="255.5" ry="26.8"/>
	<path class="st2" d="M508.9,239.2c-65.9,0-113.3,42.3-113.3,141c0,111.9,47.3,141.5,113.3,141.5S625,489.2,625,380.2
		C625,263.6,574.8,239.2,508.9,239.2z M509.3,484.5c-45.7,0-69.5-26.8-69.5-104.3c0-68.4,24.8-104.4,70.5-104.4
		s70.5,23.7,70.5,104.4C580.8,455.8,555,484.5,509.3,484.5z"/>
	<path class="st3" d="M356.2,443.6h-27.3v-80.3c0-8.9-7.2-16.1-16.1-16.1h-6.4c-8.9,0-16.1,7.2-16.1,16.1l0,0v80.3h-76.9
		c-5.1,0-9.2-4.1-9.2-9.2c0-1.5,0.4-3,1.1-4.3l81.4-154c4.1-7.8,1.1-17.6-6.7-21.7c-0.2-0.1-0.4-0.2-0.6-0.3l-4.8-2.3
		c-7.7-3.7-17-0.6-21,7l-99.2,185.7c-1.7,3.2-2.6,6.7-2.6,10.3l0,0c0,12,9.8,21.8,21.8,21.8c0,0,0,0,0,0h116.8v50.8
		c0,10.6,8.6,19.3,19.3,19.3l0,0h0c10.6,0,19.3-8.6,19.3-19.3l0,0v-50.8h27.3c9.1,0,16.4-7.4,16.4-16.4l0,0
		C372.6,451,365.2,443.6,356.2,443.6L356.2,443.6z"/>
	<path class="st3" d="M860.9,443.6h-27.3v-80.3c0-8.9-7.2-16.1-16.1-16.1h-6.4c-8.9,0-16.1,7.2-16.1,16.1l0,0v80.3h-76.9
		c-5.1,0-9.2-4.1-9.2-9.2c0-1.5,0.4-3,1.1-4.3l81.4-154c4.1-7.8,1.1-17.6-6.7-21.7c-0.2-0.1-0.4-0.2-0.6-0.3l-4.8-2.3
		c-7.7-3.7-17-0.6-21,7L659,444.4c-1.7,3.2-2.6,6.7-2.6,10.3l0,0c0,12,9.8,21.8,21.8,21.8l0,0h116.8v50.8c0,10.6,8.6,19.3,19.3,19.3
		c0,0,0,0,0,0l0,0c10.6,0,19.3-8.6,19.3-19.3c0,0,0,0,0,0v-50.8h27.3c9.1,0,16.4-7.4,16.4-16.4l0,0l0,0
		C877.3,451,870,443.6,860.9,443.6L860.9,443.6z"/>
	<path class="st4" d="M363.7,434.2h-27.3v-80.3c0-8.9-7.2-16.1-16.1-16.1l0,0H314c-8.9,0-16.1,7.2-16.1,16.1v0v80.3H221
		c-5.1,0-9.2-4.1-9.2-9.2c0-1.5,0.4-3,1.1-4.3l81.4-154c4.1-7.8,1.1-17.6-6.7-21.7c-0.2-0.1-0.4-0.2-0.6-0.3l-4.8-2.3
		c-7.7-3.7-17-0.6-21,7L161.8,435c-1.7,3.2-2.6,6.7-2.6,10.3l0,0c0,12,9.8,21.8,21.8,21.8h116.8v50.8c0,10.6,8.6,19.3,19.3,19.3l0,0
		h0c10.6,0,19.3-8.6,19.3-19.3l0,0v-50.8h27.3c9.1,0,16.4-7.4,16.4-16.4l0,0C380.1,441.6,372.8,434.2,363.7,434.2z"/>
	<path class="st4" d="M875,434.2h-27.3v-80.3c0-8.9-7.2-16.1-16.1-16.1l0,0h-6.4c-8.9,0-16.1,7.2-16.1,16.1v0v80.3h-76.9
		c-5.1,0-9.2-4.1-9.2-9.2c0-1.5,0.4-3,1.1-4.3l81.4-154c4.1-7.8,1.1-17.6-6.7-21.7c-0.2-0.1-0.4-0.2-0.6-0.3l-4.8-2.3
		c-7.7-3.7-17-0.6-21,7L673.1,435c-1.7,3.2-2.6,6.7-2.6,10.3l0,0c0,12,9.8,21.8,21.8,21.8l0,0h116.8v50.8c0,10.6,8.6,19.3,19.3,19.3
		c0,0,0,0,0,0l0,0c10.6,0,19.3-8.6,19.3-19.3c0,0,0,0,0,0v-50.8H875c9.1,0,16.4-7.4,16.4-16.4l0,0l0,0
		C891.4,441.6,884.1,434.2,875,434.2C875,434.2,875,434.2,875,434.2z"/>
	<path class="st4" d="M523.9,230.7c-65.9,0-113.3,42.3-113.3,141c0,111.9,47.3,141.5,113.3,141.5S640,480.7,640,371.7
		C640,255.2,589.9,230.7,523.9,230.7z M524.4,476c-45.7,0-69.5-26.8-69.5-104.3c0-68.4,24.8-104.4,70.5-104.4s70.5,23.7,70.5,104.4
		C595.8,447.3,570,476,524.4,476L524.4,476z"/>
	<path class="st5" d="M882,432.9c8.3,3,17.4-1.3,20.5-9.5s-1.3-17.4-9.5-20.5c-2.8-1-5.9-1.2-8.8-0.6l0.4,8.2l-3.9-7
		c-3.8,1.8-6.8,5-8.2,9c-0.5,1.4-0.8,2.8-0.9,4.3C871.1,423.9,875.3,430.5,882,432.9z"/>
	<path class="st4" d="M901.3,528.2c-1.4-7,4.6-13.2,10.4-17.2c5.9-4,12.7-8,14.7-14.8c2.9-9.8-5.7-18.8-12.4-26.6
		c-5-5.8-9.2-12.1-12.7-18.8c-1.4-2.7-2.7-5.5-3-8.6c-0.5-4.4,0.9-8.7,2.3-12.8c4.7-13.8,9.7-27.6,15.1-41.2"/>
	<path class="st4" d="M882.7,430.8c8.3,3,17.4-1.3,20.5-9.5c3-8.3-1.3-17.4-9.5-20.5c-2.8-1-5.9-1.2-8.8-0.6l0.4,8.2l-3.9-7
		c-3.8,1.8-6.8,5-8.2,9c-0.5,1.4-0.8,2.8-0.9,4.3C871.7,421.8,876,428.3,882.7,430.8z"/>
	<path class="st5" d="M899.3,385.4c1.9-5.1,6.2-8.9,11.5-10.1l1.3,7.8l2.4-8.2c8.8,0.1,15.9,7.4,15.7,16.2
		c-0.1,8.8-7.4,15.9-16.2,15.7c-8.8-0.1-15.9-7.4-15.7-16.2C898.4,388.8,898.7,387,899.3,385.4z"/>
	<path class="st4" d="M900.2,382.5c1.9-5.1,6.2-8.9,11.5-10.1l1.3,7.8l2.4-8.2c8.8,0.1,15.9,7.4,15.7,16.2
		c-0.1,8.8-7.4,15.9-16.2,15.7c-8.8-0.1-15.9-7.4-15.7-16.2C899.3,386,899.6,384.2,900.2,382.5z"/>
	<path class="st5" d="M911.3,469.8c8.3,3,17.4-1.3,20.4-9.6c2.5-7-0.1-14.8-6.3-18.8l-1.9,6.3l-1.3-7.9c0,0,0,0,0,0
		c-8.3-3-17.4,1.3-20.5,9.6C898.7,457.6,903,466.7,911.3,469.8C911.3,469.8,911.3,469.8,911.3,469.8L911.3,469.8z"/>
	<path class="st4" d="M912,466.9c8.3,3,17.4-1.3,20.4-9.6c2.5-7-0.1-14.8-6.3-18.8l-1.9,6.3l-1.3-7.9c0,0,0,0,0,0
		c-8.3-3-17.4,1.3-20.5,9.6C899.5,454.7,903.7,463.9,912,466.9C912,466.9,912,466.9,912,466.9L912,466.9z"/>
	<path class="st5" d="M894.7,496.3c1.5,8.7,9.8,14.5,18.5,13c8.7-1.5,14.5-9.8,13-18.5c-1.5-8.7-9.8-14.5-18.5-13
		c-3.9,0.7-7.4,2.8-9.9,6l7.1,10.7l-9.7-5.7C894.4,491.2,894.2,493.8,894.7,496.3z"/>
	<path class="st4" d="M895.3,494.2c1.5,8.7,9.8,14.5,18.5,13c8.7-1.5,14.5-9.8,13-18.5c-1.5-8.7-9.8-14.5-18.5-13
		c-3.9,0.7-7.4,2.8-9.9,6l7.1,10.7l-9.7-5.7C895,489.1,894.9,491.7,895.3,494.2z"/>
	<path class="st5" d="M116.6,471.8c5.4,2,11.5-0.8,13.4-6.3c2-5.4-0.8-11.5-6.3-13.4c-1.8-0.7-3.8-0.8-5.8-0.4l0.3,5.4l-2.6-4.6
		c-2.5,1.2-4.4,3.3-5.4,5.9c-0.3,0.9-0.5,1.9-0.6,2.8C109.4,465.9,112.2,470.2,116.6,471.8z"/>
	<path class="st4" d="M129.2,534.4c-0.9-4.6,3-8.7,6.9-11.3c3.9-2.6,8.4-5.2,9.7-9.7c1.9-6.5-3.7-12.4-8.1-17.5
		c-3.3-3.8-6.1-7.9-8.3-12.4c-1-1.7-1.7-3.6-2-5.6c-0.3-2.9,0.6-5.7,1.5-8.4c3.1-9.1,6.4-18.1,9.9-27"/>
	<path class="st4" d="M117,470.4c5.4,2,11.5-0.8,13.4-6.3c2-5.4-0.8-11.5-6.3-13.4c-1.8-0.7-3.8-0.8-5.8-0.4l0.3,5.4l-2.6-4.6
		c-2.5,1.2-4.4,3.3-5.4,5.9c-0.3,0.9-0.5,1.9-0.6,2.8C109.8,464.5,112.6,468.8,117,470.4z"/>
	<path class="st5" d="M128,440.6c1.2-3.4,4.1-5.9,7.5-6.7l0.9,5.1l1.6-5.4c5.8,0.1,10.4,4.9,10.3,10.6c-0.1,5.8-4.9,10.4-10.6,10.3
		s-10.4-4.9-10.3-10.6C127.3,442.8,127.6,441.7,128,440.6z"/>
	<path class="st4" d="M128.5,438.7c1.2-3.4,4.1-5.9,7.5-6.7l0.9,5.1l1.6-5.4c5.8,0.1,10.4,4.9,10.3,10.6
		c-0.1,5.8-4.9,10.4-10.6,10.3s-10.4-4.9-10.3-10.6C127.9,441,128.1,439.8,128.5,438.7z"/>
	<path class="st5" d="M135.8,496c5.4,2,11.5-0.8,13.4-6.3c1.7-4.6-0.1-9.7-4.2-12.4l-1.2,4.1l-0.9-5.2c0,0,0,0,0,0
		c-5.4-2-11.5,0.8-13.4,6.3C127.5,488,130.3,494,135.8,496C135.8,496,135.8,496,135.8,496z"/>
	<path class="st4" d="M136.3,494.1c5.4,2,11.5-0.8,13.4-6.3c1.7-4.6-0.1-9.7-4.2-12.4l-1.2,4.1l-0.9-5.2c0,0,0,0,0,0
		c-5.4-2-11.5,0.8-13.4,6.3C128,486.1,130.9,492.1,136.3,494.1L136.3,494.1L136.3,494.1z"/>
	<path class="st5" d="M124.9,513.4c1,5.7,6.4,9.5,12.1,8.5c5.7-1,9.5-6.4,8.5-12.1c-1-5.7-6.4-9.5-12.1-8.5
		c-2.6,0.5-4.9,1.9-6.5,3.9l4.7,7l-6.4-3.7C124.7,510.1,124.6,511.8,124.9,513.4z"/>
	<path class="st4" d="M125.3,512c1,5.7,6.4,9.5,12.1,8.5c5.7-1,9.5-6.4,8.5-12.1c-1-5.7-6.4-9.5-12.1-8.5c-2.6,0.5-4.9,1.9-6.5,3.9
		l4.7,7l-6.4-3.7C125.1,508.7,125,510.4,125.3,512z"/>
</g>
<g>
	<g>
		<path d="M680.5,439.2c0,0,34-17.1,16.8-37.9c0,0-1.6-4.5-6.4-4.2c0,0,0.9,1.8-2.7,3.1c-1.3,0.5-2.5,1.1-3.7,1.9
			c-1.6,1-2.7,2.6-3.3,4.3l0,0c0,0-7,9.2-1.9,26.4c0,0-0.7,4.8-0.2,5.7l4.2-5.6c0,0-4.2-2.9-4.7-7.1c0,0,4.3,7.1,5.3,6.3
			c0.2-0.1,2.1-3.1,2.1-3.1s-7.3-5.1-7.8-11.6c0,0,4.1,9.1,8.5,10.5l2.6-4.6c0,0-8-5-8.8-12.4c0,0,4.6,9.4,9.3,11.3l1.9-4.8
			c0,0-7.7-5-8.4-11.2c0,0,6.4,10.3,8.7,10c0,0,1.5-4.5,1.3-5.9c0,0-5.5-3.8-5.5-7.3c0,0,5,6.5,5.8,6c0,0,0.4-6.4-1.1-9.8
			c1.6,3,2.3,6.4,2.1,9.8c1.6-1.4,2.7-3.2,3.3-5.2c0,0,1.4,3.6-3.4,6.7c0,0-0.6,5-1.1,5.6c0,0,5.2-2.5,7.5-5.6c0,0-0.9,4.6-7.9,6.9
			l-1.8,4.9c0,0,7.1-2.9,9.3-5.5c0,0-1.6,4.6-9.9,6.7l-2.5,4.5c0,0,6.3-2,9.4-4.4c0,0-2.4,3.9-10.1,5.7l-2,2.8c0,0,4.6-1.6,5.8-2.1
			c1.3-0.6,1.5-0.3,1.5-0.3c-2.3,1.9-5.2,3.2-8.2,3.6C684.8,433.4,680.1,438.9,680.5,439.2z"/>
		<path class="st6" d="M513.7,381.8c0,0,34-17.1,16.8-37.9c0,0-1.6-4.5-6.4-4.2c0,0,0.9,1.8-2.7,3.1c-1.3,0.5-2.5,1.1-3.7,1.9
			c-1.5,1-2.7,2.6-3.3,4.3l0,0c0,0-7,9.2-1.9,26.4c0,0-0.7,4.8-0.1,5.6l4.2-5.6c0,0-4.2-2.9-4.7-7.1c0,0,4.4,7.1,5.3,6.3
			c0.2-0.1,2.1-3.1,2.1-3.1s-7.3-5.1-7.8-11.6c0,0,4.1,9.1,8.5,10.5l2.6-4.5c0,0-8-5-8.8-12.4c0,0,4.6,9.4,9.3,11.3l1.9-4.8
			c0,0-7.7-5-8.4-11.2c0,0,6.4,10.3,8.7,10c0,0,1.5-4.5,1.3-5.9c0,0-5.5-3.8-5.5-7.3c0,0,5,6.5,5.8,6c0,0,0.4-6.4-1.1-9.8
			c1.5,3,2.3,6.4,2.1,9.8c1.6-1.4,2.7-3.2,3.3-5.2c0,0,1.4,3.6-3.4,6.8c0,0-0.5,5-1.1,5.6c0,0,5.2-2.5,7.5-5.6c0,0-0.9,4.6-7.9,6.9
			l-1.8,4.9c0,0,7.1-2.9,9.3-5.5c0,0-1.6,4.6-9.9,6.7l-2.5,4.5c0,0,6.3-2,9.4-4.4c0,0-2.4,3.9-10.1,5.7l-2,2.8c0,0,4.6-1.6,5.8-2.1
			c1.3-0.6,1.5-0.3,1.5-0.3c-2.3,1.9-5.2,3.2-8.2,3.6C518,376,513.4,381.5,513.7,381.8z"/>
		<path class="st6" d="M725.2,286.4c0,0,11.1,36.5,34.5,23c0,0,4.7-0.8,5.2-5.5c0,0-1.9,0.6-2.6-3.2c-0.3-1.3-0.7-2.7-1.2-3.9
			c-0.8-1.7-2.1-3.1-3.7-4l0,0c0,0-7.9-8.5-25.7-6.4c0,0-4.6-1.6-5.5-1.1l4.8,5.1c0,0,3.6-3.7,7.8-3.4c0,0-7.7,3.1-7.1,4.1
			c0.1,0.2,2.7,2.6,2.7,2.6s6.3-6.3,12.8-5.7c0,0-9.7,2.4-11.8,6.6l4,3.4c0,0,6.3-7.1,13.7-6.6c0,0-10.1,2.9-12.8,7.3l4.4,2.7
			c0,0,6.3-6.7,12.4-6.3c0,0-11.3,4.5-11.4,6.9c0,0,4.2,2.3,5.6,2.3c0,0,4.6-4.7,8.2-4.2c0,0-7.2,3.8-6.9,4.7c0,0,6.3,1.5,9.8,0.6
			c-3.2,1-6.7,1.2-10,0.4c1.1,1.8,2.7,3.2,4.6,4.1c0,0-3.8,0.8-6.1-4.5c0,0-4.8-1.4-5.3-2c0,0,1.6,5.6,4.2,8.3c0,0-4.4-1.6-5.4-9
			l-4.5-2.7c0,0,1.7,7.5,3.9,10.1c0,0-4.3-2.4-4.9-10.8l-4-3.2c0,0,0.9,6.6,2.7,10c0,0-3.5-3.1-3.9-11l-2.4-2.5c0,0,0.8,4.8,1.1,6.1
			c0.3,1.3,0,1.6,0,1.6c-1.5-2.6-2.3-5.6-2.2-8.7C730.2,291.5,725.6,286.1,725.2,286.4z"/>
		<path class="st6" d="M790.9,233.7c0,0,37.9,4.4,34.9-22.4c0,0,1.1-4.7-3-7c0,0-0.2,2-4,1.1c-1.3-0.3-2.7-0.5-4.1-0.4
			c-1.9,0-3.7,0.7-5.1,1.8l0,0c0,0-10.9,3.8-16.1,21c0,0-3.3,3.6-3.2,4.6l6.6-2.4c0,0-1.9-4.7,0-8.5c0,0-0.3,8.3,1,8.2
			c0.3,0,3.4-1.4,3.4-1.4s-3.3-8.3-0.1-14c0,0-1.6,9.9,1.4,13.4l4.7-2.4c0,0-3.9-8.6-0.6-15.2c0,0-1.3,10.4,1.5,14.6l4.3-3
			c0,0-3.7-8.4-0.8-13.9c0,0-0.3,12.1,1.8,13.2c0,0,3.8-3,4.4-4.2c0,0-2.5-6.1-0.6-9.2c0,0,0.6,8.1,1.5,8.2c0,0,3.9-5.1,4.4-8.8
			c-0.4,3.4-1.6,6.6-3.6,9.4c2.1-0.3,4-1.2,5.6-2.5c0,0-0.8,3.7-6.6,3.8c0,0-3.2,3.9-4,4.1c0,0,5.7,0.8,9.3-0.6
			c0,0-3.3,3.4-10.4,1.4l-4.2,3.1c0,0,7.5,1.4,10.8,0.5c0,0-3.9,3-11.9,0.2l-4.5,2.4c0,0,6.4,1.8,10.2,1.5c0,0-4.2,2-11.6-0.8
			l-3.2,1.2c0,0,4.7,1.2,6.1,1.4c1.4,0.2,1.4,0.6,1.4,0.6c-3,0.3-6.1-0.2-8.8-1.5C797.6,231.2,790.8,233.3,790.9,233.7z"/>
		<path class="st6" d="M809.5,468.1c0,0,37.9,4.4,34.9-22.4c0,0,1.1-4.7-3-7c0,0-0.2,2-4,1.1c-1.4-0.3-2.7-0.4-4.1-0.4
			c-1.9,0-3.7,0.7-5.1,1.8l0,0c0,0-10.9,3.8-16.1,21c0,0-3.3,3.6-3.2,4.6l6.6-2.4c0,0-1.9-4.7,0-8.5c0,0-0.3,8.3,1,8.2
			c0.3,0,3.4-1.4,3.4-1.4s-3.3-8.3-0.1-14c0,0-1.6,9.9,1.4,13.4l4.7-2.4c0,0-3.9-8.6-0.6-15.2c0,0-1.3,10.4,1.5,14.6l4.3-3
			c0,0-3.7-8.4-0.8-13.9c0,0-0.4,12.1,1.8,13.2c0,0,3.8-3,4.4-4.2c0,0-2.5-6.1-0.6-9.2c0,0,0.6,8.1,1.5,8.2c0,0,3.9-5.2,4.4-8.8
			c-0.4,3.4-1.6,6.6-3.6,9.4c2.1-0.3,4-1.1,5.6-2.5c0,0-0.8,3.8-6.6,3.8c0,0-3.2,3.9-4,4.1c0,0,5.7,0.8,9.3-0.5
			c0,0-3.3,3.4-10.4,1.4l-4.2,3.1c0,0,7.5,1.4,10.8,0.5c0,0-3.9,2.9-11.9,0.2l-4.5,2.4c0,0,6.4,1.8,10.2,1.5c0,0-4.2,2-11.6-0.8
			l-3.2,1.2c0,0,4.7,1.2,6,1.4s1.4,0.6,1.4,0.6c-3,0.3-6.1-0.2-8.8-1.5C816.2,465.5,809.4,467.7,809.5,468.1z"/>
		<path class="st6" d="M694.1,501.7c0,0,28.7,25.1,41.5,1.3c0,0,3.6-3.2,1.5-7.5c0,0-1.3,1.5-3.9-1.4c-0.9-1-2-1.9-3.1-2.7
			c-1.6-1-3.4-1.5-5.3-1.4l0,0c0,0-11.2-3.1-25.2,8.2c0,0-4.8,1.1-5.3,2l6.8,1.7c0,0,1.1-5,4.8-7c0,0-4.9,6.7-3.9,7.3
			c0.2,0.1,3.6,0.8,3.6,0.8s2-8.7,7.8-11.6c0,0-6.9,7.2-6.5,11.9l5.2,0.7c0,0,1.6-9.3,8.2-12.8c0,0-7,7.8-7,12.9l5.2,0
			c0,0,1.7-9,7.2-11.9c0,0-7.2,9.8-6,11.9c0,0,4.8-0.3,6-1c0,0,1.4-6.5,4.7-7.8c0,0-4.1,7.1-3.4,7.6c0,0,6.1-2,8.6-4.7
			c-2.2,2.6-5.1,4.5-8.3,5.7c1.9,1,4,1.3,6.1,1.1c0,0-2.8,2.7-7.5-0.6c0,0-4.8,1.4-5.6,1.1c0,0,4.3,3.9,8,4.8c0,0-4.6,0.9-9.3-4.8
			l-5.2,0.1c0,0,5.4,5.5,8.6,6.6c0,0-4.9,0.2-9.9-6.6l-5.1-0.6c0,0,4.3,5.1,7.6,7c0,0-4.6-0.8-9.1-7.3l-3.3-0.8c0,0,3.2,3.6,4.2,4.6
			c1,1,0.8,1.2,0.8,1.2c-2.7-1.4-4.9-3.6-6.4-6.2C701,503.3,694.2,501.3,694.1,501.7z"/>
		<path class="st6" d="M762,460.1c0,0,34.9-15.4,18.7-37.1c0,0-1.4-4.6-6.1-4.5c0,0,0.9,1.8-2.9,3c-1.3,0.4-2.6,1-3.8,1.7
			c-1.6,1-2.8,2.4-3.5,4.2l0,0c0,0-7.5,8.8-3.2,26.3c0,0-1,4.8-0.4,5.6l4.5-5.4c0,0-4.1-3.1-4.3-7.3c0,0,4,7.3,5,6.6
			c0.2-0.1,2.2-3,2.2-3s-7-5.4-7.2-12c0,0,3.6,9.3,8,10.9l2.8-4.4c0,0-7.8-5.4-8.2-12.8c0,0,4.1,9.6,8.7,11.8l2.2-4.7
			c0,0-7.4-5.4-7.8-11.6c0,0,5.8,10.6,8.2,10.5c0,0,1.7-4.5,1.6-5.9c0,0-5.3-4-5.1-7.6c0,0,4.7,6.7,5.5,6.3c0,0,0.7-6.4-0.6-9.8
			c1.4,3.1,2,6.5,1.6,9.9c1.7-1.3,2.9-3,3.6-5c0,0,1.2,3.6-3.8,6.6c0,0-0.8,5-1.4,5.6c0,0,5.3-2.2,7.7-5.2c0,0-1.1,4.6-8.3,6.5
			l-2.1,4.8c0,0,7.4-2.5,9.6-5c0,0-1.8,4.5-10.2,6.2l-2.7,4.4c0,0,6.4-1.7,9.6-3.9c0,0-2.6,3.8-10.4,5.1l-2.2,2.7
			c0,0,4.6-1.3,5.9-1.8s1.5-0.2,1.5-0.2c-2.4,1.8-5.3,2.9-8.4,3.2C766.5,454.6,761.8,459.8,762,460.1z"/>
		<path class="st6" d="M327.6,372.2c0,0,34.9-15.4,18.7-37c0,0-1.4-4.6-6.1-4.5c0,0,0.9,1.8-2.9,3c-1.3,0.4-2.6,1-3.8,1.7
			c-1.6,1-2.8,2.4-3.5,4.2l0,0c0,0-7.5,8.8-3.2,26.3c0,0-1,4.8-0.4,5.6l4.5-5.4c0,0-4.1-3.1-4.3-7.4c0,0,4,7.3,5,6.6
			c0.2-0.1,2.2-2.9,2.2-2.9s-7-5.4-7.2-12c0,0,3.6,9.3,8,10.9l2.8-4.4c0,0-7.8-5.4-8.2-12.8c0,0,4.1,9.6,8.7,11.8l2.2-4.7
			c0,0-7.4-5.4-7.8-11.6c0,0,5.8,10.6,8.2,10.5c0,0,1.7-4.5,1.6-5.9c0,0-5.3-4-5.1-7.6c0,0,4.7,6.7,5.5,6.3c0,0,0.7-6.4-0.6-9.8
			c1.4,3.1,2,6.5,1.6,9.9c1.7-1.3,2.9-3,3.6-5c0,0,1.2,3.6-3.7,6.6c0,0-0.8,5-1.4,5.6c0,0,5.3-2.2,7.7-5.2c0,0-1.1,4.6-8.3,6.4
			l-2.1,4.8c0,0,7.2-2.5,9.6-5c0,0-1.8,4.5-10.2,6.2l-2.7,4.3c0,0,6.4-1.7,9.6-3.9c0,0-2.6,3.8-10.4,5.1l-2.2,2.7
			c0,0,4.6-1.3,5.9-1.9s1.5-0.2,1.5-0.2c-2.4,1.8-5.3,2.9-8.4,3.2C332,366.6,327.3,371.9,327.6,372.2z"/>
		<path class="st6" d="M259.7,370.6c0,0,34.9-15.4,18.7-37c0,0-1.4-4.6-6.1-4.5c0,0,0.9,1.8-2.9,3c-1.3,0.4-2.6,1-3.8,1.7
			c-1.6,1-2.8,2.4-3.5,4.1l0,0c0,0-7.5,8.8-3.2,26.3c0,0-1,4.8-0.4,5.6l4.5-5.4c0,0-4.1-3.1-4.3-7.4c0,0,4,7.3,5,6.6
			c0.2-0.1,2.2-2.9,2.2-2.9s-7-5.4-7.2-12c0,0,3.6,9.3,8,10.9l2.8-4.4c0,0-7.8-5.4-8.2-12.8c0,0,4.1,9.6,8.7,11.8l2.2-4.7
			c0,0-7.4-5.4-7.8-11.6c0,0,5.9,10.6,8.2,10.5c0,0,1.7-4.5,1.6-5.9c0,0-5.3-4-5.1-7.6c0,0,4.7,6.7,5.5,6.3c0,0,0.7-6.4-0.6-9.8
			c1.4,3.1,2,6.5,1.6,9.9c1.7-1.3,2.9-3,3.6-5c0,0,1.2,3.6-3.8,6.6c0,0-0.8,5-1.4,5.6c0,0,5.3-2.2,7.7-5.2c0,0-1.1,4.6-8.3,6.5
			l-2.1,4.8c0,0,7.2-2.5,9.6-5c0,0-1.8,4.5-10.2,6.2l-2.7,4.4c0,0,6.4-1.7,9.6-3.9c0,0-2.6,3.8-10.4,5.1l-2.2,2.7
			c0,0,4.6-1.3,5.9-1.8c1.3-0.5,1.5-0.2,1.5-0.2c-2.4,1.8-5.3,2.9-8.4,3.2C264.2,365,259.4,370.3,259.7,370.6z"/>
		<path class="st6" d="M520.5,563.9c0,0,37.9,4.4,34.9-22.4c0,0,1.1-4.7-3-7c0,0-0.2,2-4,1.1c-1.3-0.3-2.7-0.5-4.1-0.4
			c-1.9,0-3.7,0.7-5.1,1.8l0,0c0,0-10.9,3.8-16.1,21c0,0-3.3,3.6-3.2,4.6l6.6-2.4c0,0-1.9-4.7,0-8.5c0,0-0.3,8.3,1,8.2
			c0.3,0,3.4-1.4,3.4-1.4s-3.3-8.3-0.1-14c0,0-1.6,9.9,1.4,13.4l4.7-2.4c0,0-3.9-8.6-0.6-15.2c0,0-1.4,10.4,1.5,14.6l4.3-3
			c0,0-3.7-8.4-0.8-13.9c0,0-0.4,12.1,1.8,13.2c0,0,3.8-3,4.4-4.2c0,0-2.5-6.1-0.6-9.2c0,0,0.6,8.1,1.5,8.2c0,0,3.9-5.1,4.4-8.8
			c-0.4,3.4-1.6,6.6-3.6,9.4c2.1-0.3,4-1.2,5.6-2.5c0,0-0.8,3.8-6.6,3.8c0,0-3.2,3.9-4,4.1c0,0,5.7,0.8,9.3-0.6
			c0,0-3.3,3.4-10.4,1.4l-4.2,3.1c0,0,7.5,1.4,10.8,0.5c0,0-3.9,3-11.9,0.2l-4.6,2.4c0,0,6.4,1.8,10.3,1.5c0,0-4.2,2-11.6-0.8
			l-3.2,1.2c0,0,4.7,1.2,6.1,1.4c1.4,0.2,1.4,0.5,1.4,0.5c-3,0.3-6.1-0.2-8.8-1.5C527.2,561.3,520.4,563.4,520.5,563.9z"/>
		<path class="st6" d="M417.4,433.1c0,0,27.5,26.4,41.3,3.1c0,0,3.7-3,1.9-7.4c0,0-1.3,1.5-3.8-1.5c-0.9-1.1-1.9-2-3-2.9
			c-1.5-1.1-3.3-1.7-5.2-1.7l0,0c0,0-11-3.6-25.5,7.1c0,0-4.8,0.9-5.3,1.7l6.7,2.1c0,0,1.3-5,5.1-6.8c0,0-5.2,6.5-4.1,7.1
			c0.2,0.1,3.6,0.9,3.6,0.9s2.3-8.6,8.3-11.2c0,0-7.3,6.9-7,11.5l5.2,0.9c0,0,2-9.2,8.7-12.5c0,0-7.3,7.5-7.6,12.6l5.2,0.2
			c0,0,2.2-8.9,7.7-11.6c0,0-7.6,9.5-6.5,11.6c0,0,4.8-0.1,6-0.7c0,0,1.7-6.4,5.1-7.6c0,0-4.4,6.9-3.8,7.5c0,0,6.2-1.8,8.9-4.3
			c-2.3,2.5-5.3,4.3-8.5,5.3c1.8,1,3.9,1.5,6,1.4c0,0-2.9,2.5-7.5-1c0,0-4.9,1.2-5.6,0.9c0,0,4.1,4.1,7.7,5.2c0,0-4.7,0.7-9.1-5.2
			l-5.2-0.1c0,0,5.1,5.7,8.3,6.9c0,0-4.9,0-9.6-7l-5.1-0.8c0,0,4,5.2,7.3,7.3c0,0-4.5-1-8.7-7.7l-3.3-1c0,0,3,3.8,3.9,4.8
			c0.9,1,0.8,1.3,0.8,1.3c-2.6-1.6-4.7-3.8-6.2-6.5C424.2,435.1,417.6,432.8,417.4,433.1z"/>
		<path class="st6" d="M578.7,244.1c0,0,33.8,17.6,40.6-8.6c0,0,2.7-3.9-0.3-7.6c0,0-0.9,1.8-4.1-0.4c-1.2-0.8-2.4-1.4-3.7-1.9
			c-1.8-0.7-3.7-0.7-5.5-0.2l0,0c0,0-11.6-0.3-22.5,14c0,0-4.4,2.2-4.6,3.2l7,0.1c0,0-0.1-5.1,3-7.9c0,0-3.2,7.6-2,8
			c0.2,0.1,3.7-0.1,3.7-0.1s-0.2-8.9,4.8-13.1c0,0-5,8.6-3.5,13.1l5.2-0.6c0,0-0.6-9.4,4.9-14.4c0,0-4.9,9.2-3.7,14.2l5-1.3
			c0,0-0.5-9.2,4.2-13.3c0,0-4.6,11.2-3,12.9c0,0,4.6-1.4,5.6-2.4c0,0-0.2-6.6,2.7-8.8c0,0-2.3,7.8-1.5,8.2c0,0,5.4-3.4,7.3-6.7
			c-1.5,3-3.8,5.6-6.7,7.5c2,0.5,4.2,0.4,6.1-0.4c0,0-2,3.2-7.4,1.2c0,0-4.3,2.5-5.2,2.4c0,0,5.1,2.8,8.9,2.8c0,0-4.3,2-10.2-2.4
			l-5,1.4c0,0,6.5,4,9.9,4.3c0,0-4.7,1.4-11.2-4.1l-5.1,0.6c0,0,5.3,3.9,9.1,5c0,0-4.6,0.4-10.5-4.9l-3.5,0c0,0,3.9,2.8,5.2,3.5
			c1.2,0.7,1.1,1.1,1.1,1.1c-2.9-0.8-5.6-2.3-7.7-4.5C585.9,244.1,578.8,243.6,578.7,244.1z"/>
		<path d="M545.1,453.7c0,0,33.3,18.6,40.8-7.4c0,0,2.9-3.9-0.1-7.6c0,0-0.9,1.8-4.1-0.5c-1.1-0.8-2.3-1.5-3.6-2
			c-1.7-0.7-3.6-0.8-5.4-0.3l0,0c0,0-11.5-0.7-22.9,13.3c0,0-4.4,2.1-4.7,3l7,0.3c0,0,0-5.1,3.3-7.8c0,0-3.4,7.6-2.2,7.9
			c0.3,0.1,3.7,0,3.7,0s0.1-8.9,5.2-12.9c0,0-5.3,8.5-3.9,12.9l5.2-0.4c0,0-0.4-9.4,5.3-14.2c0,0-5.2,9.1-4.2,14.1l5.1-1.1
			c0,0-0.1-9.2,4.6-13.2c0,0-5,11.1-3.4,12.8c0,0,4.6-1.3,5.7-2.2c0,0,0-6.6,3-8.7c0,0-2.5,7.7-1.8,8.2c0,0,5.5-3.3,7.5-6.4
			c-1.6,3-4,5.5-6.9,7.3c2,0.5,4.2,0.5,6.2-0.2c0,0-2.1,3.2-7.5,1c0,0-4.4,2.4-5.2,2.3c0,0,5,2.9,8.8,3.1c0,0-4.3,1.9-10.1-2.7
			l-5.1,1.2c0,0,6.4,4.2,9.8,4.6c0,0-4.7,1.2-11.1-4.4l-5.1,0.5c0,0,5.2,4.1,8.8,5.3c0,0-4.6,0.2-10.4-5.2l-3.4-0.1
			c0,0,3.9,2.9,5,3.6s1.1,1.1,1.1,1.1c-2.9-0.9-5.5-2.5-7.6-4.8C552.2,453.9,545.2,453.3,545.1,453.7z"/>
	</g>
	<path d="M682.9,162.7c0,0,1-38.1-25.5-32.7c0,0-4.7-0.7-6.7,3.6c0,0,2,0,1.4,3.9c-0.2,1.4-0.2,2.8-0.1,4.1c0.2,1.9,1,3.6,2.3,5l0,0
		c0,0,4.8,10.5,22.4,14.1c0,0,3.9,3,4.9,2.8l-3-6.3c0,0-4.5,2.3-8.5,0.8c0,0,8.3-0.5,8.1-1.7c0-0.3-1.7-3.3-1.7-3.3s-7.9,4-13.9,1.4
		c0,0,10,0.8,13.3-2.5l-2.8-4.4c0,0-8.2,4.7-15.1,1.9c0,0,10.5,0.4,14.4-2.9l-3.3-4c0,0-8.1,4.4-13.8,2.1c0,0,12.1-0.7,13-2.9
		c0,0-3.3-3.5-4.6-4c0,0-5.9,3-9.1,1.4c0,0,8-1.3,8-2.2c0,0-5.5-3.4-9.2-3.6c3.4,0.1,6.7,1,9.7,2.8c-0.5-2-1.5-3.9-3-5.4
		c0,0,3.8,0.4,4.3,6.2c0,0,4.2,2.8,4.4,3.6c0,0,0.3-5.8-1.4-9.2c0,0,3.7,3,2.3,10.2l3.4,3.9c0,0,0.8-7.6-0.5-10.8
		c0,0,3.3,3.6,1.3,11.9l2.8,4.3c0,0,1.2-6.5,0.5-10.3c0,0,2.3,4,0.2,11.6l1.5,3.1c0,0,0.8-4.8,0.9-6.2s0.5-1.5,0.5-1.5
		c0.6,3,0.4,6.1-0.7,8.9C679.8,156.2,682.4,162.8,682.9,162.7z"/>
</g>
<g>
	<ellipse class="st0" cx="194" cy="689.7" rx="176.1" ry="33.4"/>
	<g>
		<path class="st7" d="M217.5,658.3c-10,14.3-46,6.7-46,6.7l-27.9-26.1l-3.8-3.5l6.3-13.4c0,0,2,0.5,5.4,1.5
			C169.7,628.8,225.9,646.3,217.5,658.3z"/>
		<path class="st6" d="M151.6,623.6c-1.2,4.3-4.6,10.7-8,15.4l-3.8-3.5l6.3-13.4C146.2,622.1,148.2,622.6,151.6,623.6z"/>
		<path class="st6" d="M82.6,575.4c0,0-5.2,10.6-2,9.9C83.8,584.6,82.6,575.4,82.6,575.4z"/>
		<polygon class="st3" points="85.1,596.9 162.1,584.3 162.1,657.2 89,653.4 		"/>
		<polygon class="st8" points="85.1,596.9 162.1,584.3 162.1,657.2 89,653.4 		"/>
		<polygon class="st3" points="162.1,584.3 254.5,591.2 249.4,654.7 162.1,657.2 		"/>
		<polygon class="st6" points="162.1,584.3 254.5,591.2 249.4,654.7 162.1,657.2 		"/>
		<polygon class="st3" points="190.5,562.1 162.1,584.3 254.5,591.2 269.6,568.5 		"/>
		<polygon class="st3" points="57.2,572.6 126.6,564.1 162.1,584.3 85.1,596.9 		"/>
		<polygon class="st3" points="179,603.3 179,702.9 142.9,699.2 127.2,697.6 122.5,697.1 106.8,695.5 85.1,693.3 85.1,596.9 
			162.1,602.1 		"/>
		<polygon class="st3" points="254.5,591.2 254.5,688.4 225.6,694 211.5,696.7 179,702.9 179,603.3 		"/>
		<polygon class="st8" points="254.5,591.2 254.5,688.4 225.6,694 211.5,696.7 179,702.9 179,603.3 		"/>
		<polygon class="st3" points="57.2,617.8 85.1,596.9 179,603.3 165.2,626.5 		"/>
		<polygon class="st9" points="57.2,617.8 85.1,596.9 179,603.3 165.2,626.5 		"/>
		<polygon class="st3" points="254.5,591.2 179,603.3 203.6,625.3 284.4,611.7 		"/>
		<polygon class="st9" points="254.5,591.2 179,603.3 203.6,625.3 284.4,611.7 		"/>
		<polygon class="st9" points="225.6,694 211.5,696.7 211.5,675.9 224.7,672.6 		"/>
		<polygon class="st9" points="142.9,685.5 142.9,699.2 127.2,697.6 127.2,685.5 		"/>
		<polygon class="st9" points="122.5,689.8 122.5,697.1 106.8,695.5 106.8,689.8 		"/>
	</g>
</g>
</svg>
