<?xml version="1.0" encoding="utf-8"?>
<!-- Generator: Adobe Illustrator 22.1.0, SVG Export Plug-In . SVG Version: 6.00 Build 0)  -->
<svg version="1.1" xmlns="http://www.w3.org/2000/svg" xmlns:xlink="http://www.w3.org/1999/xlink" x="0px" y="0px"
	 viewBox="0 0 1132.9 839.1" style="enable-background:new 0 0 1132.9 839.1;" xml:space="preserve">
<style type="text/css">
	.st0{display:none;}
	.st1{display:inline;fill:#535461;}
	.st2{display:inline;fill:#65617D;}
	.st3{display:inline;fill:#9D9CB5;}
	.st4{display:inline;fill:#007BFF;}
	.st5{display:inline;fill:none;stroke:#535461;stroke-width:2;stroke-miterlimit:10;}
	.st6{fill:#007BFF;}
	.st7{fill:#E0E0E0;}
	.st8{display:inline;fill:url(#SVGID_1_);}
	.st9{display:inline;fill:#FCFCFC;}
	.st10{display:inline;fill:#E0E0E0;}
	.st11{display:inline;opacity:0.5;fill:#007BFF;enable-background:new    ;}
	.st12{display:inline;opacity:0.5;fill:#69F0AE;enable-background:new    ;}
	.st13{display:inline;fill:url(#SVGID_2_);}
	.st14{display:inline;fill:#F5F5F5;}
	.st15{display:inline;opacity:0.5;}
	.st16{fill:url(#SVGID_3_);}
	.st17{display:inline;fill:#3AD29F;}
	.st18{fill:url(#SVGID_4_);}
	.st19{display:inline;fill:#FFFFFF;}
	.st20{display:inline;fill:url(#SVGID_5_);}
	.st21{display:inline;fill:url(#SVGID_6_);}
	.st22{opacity:0.1;fill:#007BFF;}
</style>
<g id="Layer_2">
	<g class="st0">
		<rect x="793.7" y="526.1" class="st1" width="4.5" height="100.6"/>
		<path class="st2" d="M826.2,626.4l-0.3,4.5l-0.4,6.4l-0.2,2.7l-0.4,6.4l-0.2,2.7l-0.4,6.4l-4.5,72.8c-0.4,6.5-5.8,11.6-12.3,11.6
			h-23.5c-6.5,0-11.9-5.1-12.3-11.6l-4.5-72.8l-0.4-6.4l-0.2-2.7l-0.4-6.4l-0.2-2.7l-0.4-6.4l-0.3-4.5c-0.2-3.5,2.5-6.5,6-6.8
			c0.1,0,0.3,0,0.4,0h47.9c3.5,0,6.4,2.9,6.4,6.4C826.3,626.1,826.2,626.3,826.2,626.4z"/>
		<polygon class="st3" points="826,630.9 825.6,637.3 766.3,637.3 765.9,630.9 		"/>
		<polygon class="st3" points="825.4,640 825,646.4 766.8,646.4 766.4,640 		"/>
		<polygon class="st3" points="824.8,649.1 824.4,655.5 767.4,655.5 767,649.1 		"/>
		<path class="st4" d="M759,563.8c26,18.8,36.9,48.3,36.9,48.3s-31.4-1.1-57.4-19.9s-36.9-48.3-36.9-48.3S733,545,759,563.8z"/>
		<path class="st5" d="M701.6,543.9c0,0,32.6,18.1,43,33c10.5,15,51.3,35.2,51.3,35.2"/>
		<path class="st4" d="M775.8,525.9c14.2,10.2,20.1,26.3,20.1,26.3s-17.1-0.6-31.2-10.8S744.6,515,744.6,515
			S761.7,515.6,775.8,525.9z"/>
		<path class="st5" d="M744.6,515c0,0,17.7,9.8,23.4,18s27.9,19.1,27.9,19.1"/>
		<path class="st4" d="M816.5,551.3c-16.3,17.9-19.7,41.3-19.7,41.3s22.9-5.6,39.2-23.5s19.7-41.3,19.7-41.3
			S832.8,533.4,816.5,551.3z"/>
		<path class="st5" d="M855.7,527.8c0,0-21.2,18.3-26.6,31s-32.4,33.8-32.4,33.8"/>
	</g>
	<g>
		<circle class="st6" cx="807.9" cy="20" r="6.8"/>
		<circle class="st6" cx="842.4" cy="20" r="6.8"/>
		<circle class="st6" cx="876.9" cy="20" r="6.8"/>
		<circle class="st6" cx="911.4" cy="20" r="6.8"/>
		<circle class="st6" cx="945.9" cy="20" r="6.8"/>
		<circle class="st6" cx="980.4" cy="20" r="6.8"/>
		<circle class="st6" cx="1014.9" cy="20" r="6.8"/>
		<circle class="st6" cx="1049.4" cy="20" r="6.8"/>
		<circle class="st6" cx="1083.8" cy="20" r="6.8"/>
		<circle class="st6" cx="1118.3" cy="20" r="6.8"/>
		<circle class="st6" cx="807.9" cy="54.9" r="6.8"/>
		<circle class="st6" cx="842.4" cy="54.9" r="6.8"/>
		<circle class="st6" cx="876.9" cy="54.9" r="6.8"/>
		<circle class="st7" cx="911.4" cy="54.9" r="6.8"/>
		<circle class="st6" cx="945.9" cy="54.9" r="6.8"/>
		<circle class="st6" cx="980.4" cy="54.9" r="6.8"/>
		<circle class="st6" cx="1014.9" cy="54.9" r="6.8"/>
		<circle class="st6" cx="1049.4" cy="54.9" r="6.8"/>
		<circle class="st6" cx="1083.8" cy="54.9" r="6.8"/>
		<circle class="st6" cx="1118.3" cy="54.9" r="6.8"/>
		<circle class="st6" cx="807.9" cy="89.8" r="6.8"/>
		<circle class="st6" cx="842.4" cy="89.8" r="6.8"/>
		<circle class="st6" cx="876.9" cy="89.8" r="6.8"/>
		<circle class="st6" cx="911.4" cy="89.8" r="6.8"/>
		<circle class="st6" cx="945.9" cy="89.8" r="6.8"/>
		<circle class="st6" cx="980.4" cy="89.8" r="6.8"/>
		<circle class="st6" cx="1014.9" cy="89.8" r="6.8"/>
		<circle class="st6" cx="1049.4" cy="89.8" r="6.8"/>
		<circle class="st6" cx="1083.8" cy="89.8" r="6.8"/>
		<circle class="st6" cx="1118.3" cy="89.8" r="6.8"/>
		<circle class="st6" cx="807.9" cy="124.8" r="6.8"/>
		<circle class="st6" cx="842.4" cy="124.8" r="6.8"/>
		<circle class="st6" cx="876.9" cy="124.8" r="6.8"/>
		<circle class="st6" cx="911.4" cy="124.8" r="6.8"/>
		<circle class="st6" cx="945.9" cy="124.8" r="6.8"/>
		<circle class="st6" cx="980.4" cy="124.8" r="6.8"/>
		<circle class="st6" cx="1014.9" cy="124.8" r="6.8"/>
		<circle class="st6" cx="1049.4" cy="124.8" r="6.8"/>
		<circle class="st6" cx="1083.8" cy="124.8" r="6.8"/>
		<circle class="st6" cx="1118.3" cy="124.8" r="6.8"/>
		<circle class="st6" cx="807.9" cy="159.7" r="6.8"/>
		<circle class="st7" cx="842.4" cy="159.7" r="6.8"/>
		<circle class="st6" cx="876.9" cy="159.7" r="6.8"/>
		<circle class="st6" cx="911.4" cy="159.7" r="6.8"/>
		<circle class="st6" cx="945.9" cy="159.7" r="6.8"/>
		<circle class="st6" cx="980.4" cy="159.7" r="6.8"/>
		<circle class="st6" cx="1014.9" cy="159.7" r="6.8"/>
		<circle class="st6" cx="1049.4" cy="159.7" r="6.8"/>
		<circle class="st6" cx="1083.8" cy="159.7" r="6.8"/>
		<circle class="st6" cx="1118.3" cy="159.7" r="6.8"/>
		<circle class="st6" cx="807.9" cy="194.6" r="6.8"/>
		<circle class="st6" cx="842.4" cy="194.6" r="6.8"/>
		<circle class="st6" cx="876.9" cy="194.6" r="6.8"/>
		<circle class="st6" cx="911.4" cy="194.6" r="6.8"/>
		<circle class="st6" cx="945.9" cy="194.6" r="6.8"/>
		<circle class="st6" cx="980.4" cy="194.6" r="6.8"/>
		<circle class="st6" cx="1014.9" cy="194.6" r="6.8"/>
		<circle class="st6" cx="1049.4" cy="194.6" r="6.8"/>
		<circle class="st6" cx="1083.8" cy="194.6" r="6.8"/>
		<circle class="st6" cx="1118.3" cy="194.6" r="6.8"/>
		<circle class="st6" cx="807.9" cy="229.5" r="6.8"/>
		<circle class="st6" cx="842.4" cy="229.5" r="6.8"/>
		<circle class="st7" cx="876.9" cy="229.5" r="6.8"/>
		<circle class="st6" cx="911.4" cy="229.5" r="6.8"/>
		<circle class="st6" cx="945.9" cy="229.5" r="6.8"/>
		<circle class="st6" cx="980.4" cy="229.5" r="6.8"/>
		<circle class="st6" cx="1014.9" cy="229.5" r="6.8"/>
		<circle class="st6" cx="1049.4" cy="229.5" r="6.8"/>
		<circle class="st6" cx="1083.8" cy="229.5" r="6.8"/>
		<circle class="st6" cx="1118.3" cy="229.5" r="6.8"/>
		<circle class="st6" cx="807.9" cy="264.5" r="6.8"/>
		<circle class="st6" cx="842.4" cy="264.5" r="6.8"/>
		<circle class="st6" cx="876.9" cy="264.5" r="6.8"/>
		<circle class="st6" cx="911.4" cy="264.5" r="6.8"/>
		<circle class="st6" cx="945.9" cy="264.5" r="6.8"/>
		<circle class="st6" cx="980.4" cy="264.5" r="6.8"/>
		<circle class="st6" cx="1014.9" cy="264.5" r="6.8"/>
		<circle class="st6" cx="1049.4" cy="264.5" r="6.8"/>
		<circle class="st6" cx="1083.8" cy="264.5" r="6.8"/>
		<circle class="st6" cx="1118.3" cy="264.5" r="6.8"/>
		
			<ellipse transform="matrix(4.064944e-03 -1 1 4.064944e-03 505.2718 1106.0793)" class="st6" cx="807.9" cy="299.4" rx="6.8" ry="6.8"/>
		<circle class="st6" cx="842.4" cy="299.4" r="6.8"/>
		<circle class="st6" cx="876.9" cy="299.4" r="6.8"/>
		<circle class="st6" cx="911.4" cy="299.4" r="6.8"/>
		<circle class="st6" cx="945.9" cy="299.4" r="6.8"/>
		<circle class="st6" cx="980.4" cy="299.4" r="6.8"/>
		<circle class="st6" cx="1014.9" cy="299.4" r="6.8"/>
		<circle class="st6" cx="1049.4" cy="299.4" r="6.8"/>
		<circle class="st6" cx="1083.8" cy="299.4" r="6.8"/>
		<circle class="st6" cx="1118.3" cy="299.4" r="6.8"/>
		
			<ellipse transform="matrix(4.064944e-03 -1 1 4.064944e-03 470.3502 1140.8593)" class="st6" cx="807.9" cy="334.3" rx="6.8" ry="6.8"/>
		<circle class="st6" cx="842.4" cy="334.3" r="6.8"/>
		<circle class="st6" cx="876.9" cy="334.3" r="6.8"/>
		<circle class="st6" cx="911.4" cy="334.3" r="6.8"/>
		<circle class="st6" cx="945.9" cy="334.3" r="6.8"/>
		<circle class="st6" cx="980.4" cy="334.3" r="6.8"/>
		<circle class="st6" cx="1014.9" cy="334.3" r="6.8"/>
		<circle class="st6" cx="1049.4" cy="334.3" r="6.8"/>
		<circle class="st6" cx="1083.8" cy="334.3" r="6.8"/>
		<circle class="st6" cx="1118.3" cy="334.3" r="6.8"/>
	</g>
	<g class="st0">
		
			<linearGradient id="SVGID_1_" gradientUnits="userSpaceOnUse" x1="921.4794" y1="154.2393" x2="921.4794" y2="571.6896" gradientTransform="matrix(1 0 0 -1 -236 788.19)">
			<stop  offset="0" style="stop-color:#B3B3B3;stop-opacity:0.25"/>
			<stop  offset="0.54" style="stop-color:#B3B3B3;stop-opacity:0.1"/>
			<stop  offset="1" style="stop-color:#B3B3B3;stop-opacity:5.000000e-02"/>
		</linearGradient>
		<path class="st8" d="M770.6,596.7c0-30.6,30.2-58.8,60.8-58.8c4.7,0,9.2-1.2,13.6-0.1c0.1-1.3,0.1-9.2,0.1-10.5V216.5H580.2
			l-54.4,55.9V634h250.1C770.6,625.4,770.6,607.5,770.6,596.7z"/>
		<path class="st9" d="M765.9,602.6c0-38.2,31-69.2,69.2-69.2c2.1,0,4.1,0.1,6.2,0.3V373.3H530.8v253.6h239.4
			C767.4,619.1,765.9,610.9,765.9,602.6z"/>
		<polygon class="st9" points="841,375.7 529.9,375.7 529.9,272.4 580.2,219.8 841,219.8 		"/>
		<rect x="737.3" y="251.1" class="st10" width="84.4" height="6.4"/>
		<rect x="737.3" y="274.8" class="st10" width="84.4" height="6.4"/>
		<rect x="737.3" y="298.4" class="st10" width="84.4" height="6.4"/>
		<rect x="737.3" y="322.1" class="st11" width="84.4" height="6.4"/>
		<rect x="737.3" y="345.8" class="st10" width="84.4" height="6.4"/>
		<rect x="737.3" y="369.4" class="st10" width="84.4" height="6.4"/>
		<rect x="575.9" y="419.7" class="st11" width="84.4" height="6.4"/>
		<rect x="575.9" y="445.4" class="st10" width="84.4" height="6.4"/>
		<rect x="575.9" y="432.5" class="st12" width="220.3" height="6.4"/>
		<rect x="575.9" y="481.9" class="st11" width="84.4" height="6.4"/>
		<rect x="575.9" y="507.6" class="st10" width="84.4" height="6.4"/>
		<rect x="575.9" y="494.8" class="st10" width="220.3" height="6.4"/>
		<rect x="575.9" y="544.1" class="st11" width="84.4" height="6.4"/>
		<rect x="575.9" y="569.9" class="st10" width="84.4" height="6.4"/>
		<rect x="575.9" y="557" class="st10" width="180.6" height="6.4"/>
		<polygon class="st4" points="709.1,382.7 555.4,382.7 555.4,248.4 560.7,241.9 573,241.9 709.1,241.9 		"/>
		
			<linearGradient id="SVGID_2_" gradientUnits="userSpaceOnUse" x1="555.0647" y1="566.4401" x2="555.0647" y2="621.4301" gradientTransform="matrix(1 0 0 -1 0 840)">
			<stop  offset="0" style="stop-color:#B3B3B3;stop-opacity:0.25"/>
			<stop  offset="0.54" style="stop-color:#B3B3B3;stop-opacity:0.1"/>
			<stop  offset="1" style="stop-color:#B3B3B3;stop-opacity:5.000000e-02"/>
		</linearGradient>
		<polygon class="st13" points="528.7,273.6 581.4,273.6 581.4,218.6 		"/>
		<polygon class="st14" points="529.9,272.4 580.2,272.4 580.2,219.8 		"/>
		<g class="st15">
			
				<linearGradient id="SVGID_3_" gradientUnits="userSpaceOnUse" x1="897.0753" y1="152.6086" x2="897.0753" y2="271.0202" gradientTransform="matrix(1 0 0 -1 0 840)">
				<stop  offset="0" style="stop-color:#808080;stop-opacity:0.25"/>
				<stop  offset="0.54" style="stop-color:#808080;stop-opacity:0.12"/>
				<stop  offset="1" style="stop-color:#808080;stop-opacity:0.1"/>
			</linearGradient>
			<circle class="st16" cx="897.1" cy="628.2" r="59.2"/>
		</g>
		<circle class="st17" cx="897.1" cy="628.2" r="55.4"/>
		<g class="st15">
			
				<linearGradient id="SVGID_4_" gradientUnits="userSpaceOnUse" x1="897.0753" y1="181.9129" x2="897.0753" y2="241.7159" gradientTransform="matrix(1 0 0 -1 0 840)">
				<stop  offset="0" style="stop-color:#808080;stop-opacity:0.25"/>
				<stop  offset="0.54" style="stop-color:#808080;stop-opacity:0.12"/>
				<stop  offset="1" style="stop-color:#808080;stop-opacity:0.1"/>
			</linearGradient>
			<polygon class="st18" points="927,621.5 903.8,621.5 903.8,598.3 890.4,598.3 890.4,621.5 867.2,621.5 867.2,634.9 890.4,634.9 
				890.4,658.1 903.8,658.1 903.8,634.9 927,634.9 			"/>
		</g>
		<rect x="891.4" y="602.8" class="st19" width="11.4" height="50.8"/>
		<rect x="871.7" y="622.5" class="st19" width="50.8" height="11.4"/>
		
			<linearGradient id="SVGID_5_" gradientUnits="userSpaceOnUse" x1="983.5648" y1="127.6313" x2="983.5648" y2="545.0815" gradientTransform="matrix(1 0 0 -1 -236 788.19)">
			<stop  offset="0" style="stop-color:#B3B3B3;stop-opacity:0.25"/>
			<stop  offset="0.54" style="stop-color:#B3B3B3;stop-opacity:0.1"/>
			<stop  offset="1" style="stop-color:#B3B3B3;stop-opacity:5.000000e-02"/>
		</linearGradient>
		<path class="st20" d="M832.7,623.3c0-30.6,30.2-58.8,60.8-58.8c4.7,0,9.2-1.2,13.6-0.1c0.1-1.3,0.1-9.2,0.1-10.5V243.1H642.3
			L587.9,299v361.6H838C832.6,652,832.7,634.2,832.7,623.3z"/>
		<path class="st19" d="M828,629.2c0-38.2,31-69.2,69.2-69.2l0,0c2.1,0,4.1,0.1,6.2,0.3V399.9H592.9v253.6h239.4
			C829.4,645.7,828,637.5,828,629.2z"/>
		<polygon class="st19" points="903.1,402.3 592,402.3 592,299 642.3,246.4 903.1,246.4 		"/>
		<rect x="799.3" y="277.8" class="st10" width="84.4" height="6.4"/>
		<rect x="799.3" y="301.4" class="st10" width="84.4" height="6.4"/>
		<rect x="799.3" y="325.1" class="st10" width="84.4" height="6.4"/>
		<rect x="799.3" y="348.7" class="st11" width="84.4" height="6.4"/>
		<rect x="799.3" y="372.4" class="st10" width="84.4" height="6.4"/>
		<rect x="799.3" y="396" class="st10" width="84.4" height="6.4"/>
		<rect x="638" y="446.3" class="st11" width="84.4" height="6.4"/>
		<rect x="638" y="472" class="st10" width="84.4" height="6.4"/>
		<rect x="638" y="459.1" class="st12" width="220.3" height="6.4"/>
		<rect x="638" y="508.5" class="st11" width="84.4" height="6.4"/>
		<rect x="638" y="534.2" class="st10" width="84.4" height="6.4"/>
		<rect x="638" y="521.4" class="st10" width="220.3" height="6.4"/>
		<rect x="638" y="570.7" class="st11" width="84.4" height="6.4"/>
		<rect x="638" y="596.5" class="st10" width="84.4" height="6.4"/>
		<rect x="638" y="583.6" class="st10" width="180.6" height="6.4"/>
		<polygon class="st4" points="771.2,409.3 617.5,409.3 617.5,275 622.8,268.5 635.1,268.5 771.2,268.5 		"/>
		
			<linearGradient id="SVGID_6_" gradientUnits="userSpaceOnUse" x1="617.1501" y1="539.8322" x2="617.1501" y2="594.822" gradientTransform="matrix(1 0 0 -1 0 840)">
			<stop  offset="0" style="stop-color:#B3B3B3;stop-opacity:0.25"/>
			<stop  offset="0.54" style="stop-color:#B3B3B3;stop-opacity:0.1"/>
			<stop  offset="1" style="stop-color:#B3B3B3;stop-opacity:5.000000e-02"/>
		</linearGradient>
		<polygon class="st21" points="590.8,300.2 643.5,300.2 643.5,245.2 		"/>
		<polygon class="st9" points="592,299 642.3,299 642.3,246.4 		"/>
	</g>
	<path class="st22" d="M55.1,839.1c0,0,88.1-167.2,257.3-204.3s141-175.5,178-247.9s75.8-116.8,218.5-120.2s306.9-115.5,424-5.8
		v578.1H55.1z"/>
</g>
<g id="Layer_3">
</g>
</svg>
