<?xml version="1.0" encoding="utf-8"?>
<!-- Generator: Adobe Illustrator 22.1.0, SVG Export Plug-In . SVG Version: 6.00 Build 0)  -->
<svg version="1.1" id="_x33_0" xmlns="http://www.w3.org/2000/svg" xmlns:xlink="http://www.w3.org/1999/xlink" x="0px" y="0px"
	 viewBox="0 0 512 512" style="enable-background:new 0 0 512 512;" xml:space="preserve">
<style type="text/css">
	.st0{opacity:0.5;}
	.st1{fill:#F0BC5E;}
	.st2{fill:#BBDEFB;}
</style>
<g class="st0">
	<g>
		<path class="st1" d="M355.3,464h57.4c16.3-9.8,27.3-27.6,27.3-48c0-30.9-25.1-56-56-56s-56,25.1-56,56
			C328,436.4,339,454.2,355.3,464L355.3,464z M384,400c8.8,0,16,7.2,16,16s-7.2,16-16,16s-16-7.2-16-16S375.2,400,384,400z"/>
	</g>
	<g>
		<path class="st1" d="M296,160c0-13.2-10.8-24-24-24s-24,10.8-24,24s10.8,24,24,24L296,160z"/>
	</g>
	<g>
		<g>
			<path class="st1" d="M240,56c-13.2,0-24-10.8-24-24s10.8-24,24-24s24,10.8,24,24S253.2,56,240,56z"/>
		</g>
	</g>
	<g>
		<path class="st1" d="M368,88l18.3-18.3c1.6-1.6,3.5-2.8,5.5-3.8c0-0.6,0.2-1.2,0.2-1.9c0-13.2-10.8-24-24-24s-24,10.8-24,24
			S354.8,88,368,88L368,88z"/>
	</g>
	<g>
		<path class="st1" d="M128,128c6,0,11.5,0.5,16.8,1.1c4.5-4.4,7.2-10.4,7.2-17.1c0-13.2-10.8-24-24-24s-24,10.8-24,24
			s10.8,24,24,24c0.2,0,0.5-0.1,0.7-0.1C128,131.2,128,128,128,128z"/>
	</g>
	<g>
		<g>
			<path class="st1" d="M112,232c-13.2,0-24-10.8-24-24s10.8-24,24-24s24,10.8,24,24S125.2,232,112,232z"/>
		</g>
	</g>
	<g>
		<g>
			<path class="st1" d="M40,88C22.4,88,8,73.6,8,56s14.4-32,32-32s32,14.4,32,32S57.6,88,40,88z"/>
		</g>
	</g>
	<g>
		<g>
			<path class="st1" d="M56,200c-17.6,0-32-14.4-32-32s14.4-32,32-32s32,14.4,32,32S73.6,200,56,200z"/>
		</g>
	</g>
	<g>
		<circle class="st2" cx="384" cy="192" r="8"/>
		<path class="st2" d="M423.6,188.3c-0.8-8.7-4.4-16.6-9.9-22.8l34.2-34.2c5.2-5.2,8-12,8-19.3c0-5.7-1.8-11.1-5-15.7l13-13
			c3,3,7,4.7,11.3,4.7c15.8,0,28.7-12.9,28.7-28.7c0-4.3-1.7-8.3-4.7-11.3L464,12.7c-3-3-7-4.7-11.3-4.7C436.9,8,424,20.9,424,36.7
			c0,4.3,1.7,8.3,4.7,11.3l-13,13c-10.5-7.2-25.8-6.2-35,3L256,188.7c-5.2,5.2-8,12-8,19.3s2.8,14.2,8,19.3l28.7,28.7
			c5.2,5.2,12,8,19.3,8s14.2-2.8,19.3-8l34.2-34.2c7.1,6.3,16.3,10.2,26.5,10.2c2.4,0,4.8-0.3,7-0.7l3.3,2.4
			c28.6,21.5,45.7,55.6,45.7,91.4c0,19.1-4.8,37.6-13.8,54.2c3.9,4.5,7.2,9.7,9.5,15.3c13.2-20.9,20.2-44.8,20.2-69.6
			c0-39.1-18-76.5-48.2-101.1c5.6-4.1,10.1-9.6,12.9-16l14,14c34.4,34.4,53.3,80.1,53.3,128.8c0,30.9-7.9,61.4-22.9,88.4l-11.2,20.1
			c-4.2-2.1-8.9-3.3-13.9-3.3H239.8c5.1-6.7,8.2-15,8.2-24v-40h85.5c2.9-6,6.7-11.4,11.4-16H248v-16h120c1.5,0,2.9,0.6,4.1,1.3
			c3.8-0.8,7.8-1.3,11.9-1.3c2.3,0,4.5,0.2,6.7,0.4c-3.2-9.5-12.1-16.4-22.7-16.4H248v-16h32v-16h-32v-16c8.8,0,16-7.2,16-16v-16
			c0-8.8-7.2-16-16-16h-32v-48v-8v-40h8c57,0,72-47.1,72-72v-8h-8c-36.6,0-58.9,12.6-72,28.4V80c0-26.7-18.5-72-88-72h-8v8
			c0,24.9,15,72,72,72h8v56v4.4c-13.1-15.8-35.4-28.4-72-28.4h-8v8c0,24.9,15,72,72,72h8v48h-32c-8.8,0-16,7.2-16,16v16
			c0,8.8,7.2,16,16,16v16h-48v-16c8.8,0,16-7.2,16-16v-16c0-8.8-7.2-16-16-16H40c-8.8,0-16,7.2-16,16v16c0,8.8,7.2,16,16,16v16h-8
			c-13.2,0-24,10.8-24,24v168h16V336c0-4.4,3.6-8,8-8h8v104c0,22.1,17.9,40,40,40s40-17.9,40-40V328h48v104c0,22.1,17.9,40,40,40
			c2.8,0,5.5-0.3,8.1-0.8c0,0.3-0.1,0.5-0.1,0.8v16c0,8.8,7.2,16,16,16h224c8.8,0,16-7.2,16-16c0-6.7-2.1-13-5.7-18.1l12.7-22.9
			c16.3-29.4,24.9-62.6,24.9-96.2c0-52.9-20.6-102.7-58-140.1L423.6,188.3z M452.7,24L488,59.3c0,7-5.7,12.7-12.7,12.7L440,36.7
			C440,29.7,445.7,24,452.7,24z M440,59.3L452.7,72L440,84.7L427.3,72L440,59.3z M392,75.3c4.2-4.2,11.8-4.2,16,0l28.7,28.7
			c2.1,2.1,3.3,5,3.3,8s-1.2,5.9-3.3,8l-35.8,35.8c-5.1-2.4-10.8-3.8-16.8-3.8c-22.1,0-40,17.9-40,40c0,6,1.4,11.7,3.8,16.8
			L328,228.7L283.3,184L392,75.3z M296,244.7L267.3,216c-2.1-2.1-3.3-5-3.3-8s1.2-5.9,3.3-8l4.7-4.7l44.7,44.7l-4.7,4.7
			C307.8,248.9,300.2,248.9,296,244.7z M384,216c-13.2,0-24-10.8-24-24s10.8-24,24-24s24,10.8,24,24S397.2,216,384,216z M279.2,88.3
			c-2.5,15.6-12.7,47.7-55.2,47.7h-7.4C220,113.8,237.8,91.1,279.2,88.3z M192,72c-42.5,0-52.8-32.1-55.2-47.7
			c41.4,2.8,59.3,25.5,62.6,47.7H192z M192,184c-42.5,0-52.8-32.1-55.2-47.7c41.4,2.8,59.3,25.5,62.6,47.7H192z M40,264h80l0,16H40
			V264z M56,296h48v16H56V296z M104,432c0,13.2-10.8,24-24,24s-24-10.8-24-24V328h48V432z M168,264h80l0,16h-80V264z M184,296h48v16
			h-48V296z M184,432V328h48v104c0,13.2-10.8,24-24,24S184,445.2,184,432z M232,488v-16h208c8.8,0,16,7.2,16,16H232z"/>
		<path class="st2" d="M360,416c0,13.2,10.8,24,24,24s24-10.8,24-24s-10.8-24-24-24S360,402.8,360,416z M392,416c0,4.4-3.6,8-8,8
			s-8-3.6-8-8s3.6-8,8-8S392,411.6,392,416z"/>
	</g>
</g>
</svg>
