<?xml version="1.0" encoding="utf-8"?>
<!-- Generator: Adobe Illustrator 22.1.0, SVG Export Plug-In . SVG Version: 6.00 Build 0)  -->
<svg version="1.1" id="Layer_1" xmlns="http://www.w3.org/2000/svg" xmlns:xlink="http://www.w3.org/1999/xlink" x="0px" y="0px"
	 viewBox="0 0 295.2 295.2" style="enable-background:new 0 0 295.2 295.2;" xml:space="preserve">
<style type="text/css">
	.st0{opacity:0.5;}
	.st1{fill:#BBDEFB;}
	.st2{fill:#F9BA48;}
</style>
<g class="st0">
	<g>
		<path class="st1" d="M147.6,166.7c-57.8,0-104.8,47-104.8,104.8v23.8h209.5v-23.8C252.4,213.7,205.4,166.7,147.6,166.7z
			 M189.8,186.2c-13.6,29.3-33.4,71.7-41.9,89l-42.4-89c12.7-6.3,27-10,42.1-10C162.8,176.2,177.1,179.8,189.8,186.2z M196.9,193.5
			l11.9,51.8l-49.5,28.3C165.8,260.4,177,236.6,196.9,193.5z M136.8,274l-50.4-28.8l12-51.9L136.8,274z M52.4,271.4
			c0-29.8,13.8-56.4,35.2-73.9L75.5,250l62.5,35.7H52.4V271.4z M242.9,285.7h-85.6l62.5-35.7l-12.1-52.4
			c21.5,17.5,35.2,44.1,35.2,73.9L242.9,285.7L242.9,285.7z"/>
		<path class="st1" d="M207,138.1h12c7.9,0,14.3-6.4,14.3-14.3v-14.3h-9.5v14.3c0,2.6-2.1,4.8-4.8,4.8h-5.5
			c6.5-11.2,10.3-24.2,10.3-38.1c0-42-34.2-76.2-76.2-76.2S71.4,48.5,71.4,90.5s34.2,76.2,76.2,76.2
			C171.6,166.7,193,155.5,207,138.1z M81,90.5c0-36.8,29.9-66.7,66.7-66.7s66.7,29.9,66.7,66.7c0,14.2-4.5,27.3-12,38.1h-31.7
			c-2-5.5-7.2-9.5-13.4-9.5h-19c-7.9,0-14.3,6.4-14.3,14.3s6.4,14.3,14.3,14.3h19c6.2,0,11.4-4,13.4-9.5h23.6
			c-12,11.8-28.5,19-46.6,19C110.9,157.1,81,127.2,81,90.5z M161.9,133.3c0,2.6-2.1,4.8-4.8,4.8h-19c-2.6,0-4.8-2.1-4.8-4.8
			s2.1-4.8,4.8-4.8h19C159.8,128.6,161.9,130.7,161.9,133.3z"/>
		<path class="st1" d="M147.6,9.5c34.4,0,65.1,21.8,76.5,54.3l9-3.1C220.4,24.4,186.1,0,147.6,0c-38.5,0-72.8,24.4-85.4,60.7l9,3.1
			C82.5,31.3,113.2,9.5,147.6,9.5z"/>
		<path class="st2" d="M71.4,123.8h-4.8c-18.4,0-33.3-15-33.3-33.3s15-33.3,33.3-33.3h4.8V123.8z"/>
		<path class="st2" d="M228.6,123.8h-4.8V57.1h4.8c18.4,0,33.3,15,33.3,33.3S246.9,123.8,228.6,123.8z"/>
	</g>
</g>
</svg>
