<?xml version="1.0" encoding="utf-8"?>
<!-- Generator: Adobe Illustrator 22.1.0, SVG Export Plug-In . SVG Version: 6.00 Build 0)  -->
<svg version="1.1" id="Layer_1" xmlns="http://www.w3.org/2000/svg" xmlns:xlink="http://www.w3.org/1999/xlink" x="0px" y="0px"
	 viewBox="0 0 720 720" style="enable-background:new 0 0 720 720;" xml:space="preserve">
<style type="text/css">
	.st0{fill:#D1ECF1;}
	.st1{fill:none;stroke:#3B3B3B;stroke-miterlimit:10;}
	.st2{fill:#DC3545;}
	.st3{fill:#FFFFFF;}
	.st4{fill:#007BFF;}
	.st5{fill:none;stroke:#DC3545;stroke-width:5;stroke-miterlimit:10;}
	.st6{fill:none;stroke:#020202;stroke-miterlimit:10;}
	.st7{fill:none;stroke:#FFFFFF;stroke-miterlimit:10;}
</style>
<path class="st0" d="M511,521H195c-6.6,0-12-5.4-12-12V193c0-6.6,5.4-12,12-12h316c6.6,0,12,5.4,12,12v316
	C523,515.6,517.6,521,511,521z"/>
<g>
	<path class="st1" d="M553,425h-72c-6.6,0-12-5.4-12-12v-72c0-6.6,5.4-12,12-12h72c6.6,0,12,5.4,12,12v72
		C565,419.6,559.6,425,553,425z"/>
	<line class="st1" x1="469" y1="343" x2="565" y2="343"/>
	<circle class="st1" cx="476.2" cy="336.1" r="2.1"/>
	<circle class="st1" cx="482.5" cy="336.1" r="2.1"/>
</g>
<g>
	<circle class="st2" cx="398.4" cy="266.1" r="30.2"/>
	<g>
		
			<rect x="393.9" y="247.5" transform="matrix(0.7071 0.7071 -0.7071 0.7071 304.8524 -203.812)" class="st3" width="9" height="37.2"/>
		
			<rect x="393.9" y="247.5" transform="matrix(-0.7071 0.7071 -0.7071 -0.7071 868.3445 172.4866)" class="st3" width="9" height="37.2"/>
	</g>
</g>
<g>
	<path class="st4" d="M490.1,137.7c4.3,3.7,6.4,9,6.4,15.9c0,6.4-2.1,11.5-6.2,15.1c-4.2,3.7-9.7,5.6-16.7,5.7v9h-16.4v-20.2h6.8
		c4.9,0,8.7-0.7,11.4-2.1c2.7-1.4,4.1-3.9,4.1-7.5c0-2.3-0.6-4.1-1.9-5.4c-1.3-1.3-3-1.9-5.2-1.9c-2.4,0-4.4,0.7-5.7,2.2
		c-1.4,1.5-2.1,3.3-2.1,5.5h-16.4c-0.1-4.1,0.7-7.8,2.6-11.1c1.9-3.4,4.7-6,8.5-7.9c3.8-1.9,8.4-2.9,13.7-2.9
		C480.1,132.1,485.8,134,490.1,137.7z M474.4,191.7v17.4h-18.1v-17.4H474.4z"/>
</g>
<g>
	<circle class="st5" cx="300.1" cy="407.8" r="79.3"/>
	<g>
		
			<rect x="288.2" y="358.9" transform="matrix(0.7071 0.7071 -0.7071 0.7071 376.2717 -92.7342)" class="st5" width="23.8" height="97.8"/>
		
			<rect x="288.2" y="358.9" transform="matrix(-0.7071 0.7071 -0.7071 -0.7071 800.6432 484.0288)" class="st5" width="23.8" height="97.8"/>
	</g>
</g>
<g>
	<path class="st4" d="M239.3,488.6c3.7,3.2,5.5,7.8,5.5,13.7c0,5.5-1.8,9.9-5.4,13c-3.6,3.2-8.4,4.8-14.4,4.9v7.8h-14.1v-17.4h5.9
		c4.2,0,7.5-0.6,9.8-1.8c2.3-1.2,3.5-3.3,3.5-6.4c0-2-0.6-3.5-1.7-4.6c-1.1-1.1-2.6-1.7-4.5-1.7c-2.1,0-3.8,0.6-4.9,1.9
		c-1.2,1.3-1.8,2.8-1.8,4.8h-14.1c-0.1-3.5,0.6-6.7,2.2-9.6c1.6-2.9,4-5.2,7.3-6.8c3.3-1.7,7.2-2.5,11.8-2.5
		C230.7,483.9,235.6,485.5,239.3,488.6z M225.8,535.3v15h-15.6v-15H225.8z"/>
</g>
<g>
	<path class="st6" d="M530.1,366c2,1.7,3,4.3,3,7.5c0,3-1,5.4-3,7.2s-4.6,2.6-7.9,2.7v4.3h-7.8v-9.6h3.2c2.3,0,4.1-0.3,5.4-1
		c1.3-0.7,1.9-1.8,1.9-3.5c0-1.1-0.3-1.9-0.9-2.6c-0.6-0.6-1.4-0.9-2.5-0.9c-1.2,0-2.1,0.3-2.7,1c-0.7,0.7-1,1.6-1,2.6h-7.8
		c-0.1-1.9,0.3-3.7,1.2-5.3s2.2-2.8,4-3.8c1.8-0.9,4-1.4,6.5-1.4C525.4,363.4,528.1,364.3,530.1,366z M522.7,391.7v8.2h-8.6v-8.2
		H522.7z"/>
</g>
<g>
	<path class="st4" d="M294.3,374.3h-132c-6.6,0-12-5.4-12-12v-132c0-6.6,5.4-12,12-12h132c6.6,0,12,5.4,12,12v132
		C306.3,368.9,300.9,374.3,294.3,374.3z"/>
	<line class="st7" x1="150.3" y1="240.9" x2="306.3" y2="240.9"/>
	<circle class="st3" cx="161.9" cy="229.8" r="3.4"/>
	<circle class="st3" cx="172.2" cy="229.8" r="3.4"/>
</g>
<g>
	<path class="st3" d="M193,293.2c1,1.1,1.5,2.6,1.5,4.5v8.3h-4.4v-7.8c0-0.9-0.2-1.6-0.7-2.1c-0.5-0.5-1.2-0.8-2-0.8
		c-0.9,0-1.6,0.3-2.1,0.8c-0.5,0.5-0.8,1.3-0.8,2.3v7.6h-4.4v-7.8c0-0.9-0.2-1.6-0.7-2.1c-0.5-0.5-1.1-0.8-2-0.8
		c-0.9,0-1.6,0.3-2.1,0.8c-0.5,0.5-0.8,1.3-0.8,2.3v7.6h-4.4v-14.3h4.4v2.4c0.4-0.8,1-1.4,1.7-1.9c0.8-0.5,1.7-0.7,2.7-0.7
		c1.1,0,2.1,0.3,2.9,0.8s1.5,1.2,1.9,2.2c0.5-0.9,1.2-1.6,2-2.1c0.9-0.5,1.8-0.8,2.9-0.8C190.6,291.6,192,292.1,193,293.2z"/>
	<path class="st3" d="M197.8,286.1c0.5-0.4,1.1-0.7,1.9-0.7c0.8,0,1.4,0.2,1.9,0.7c0.5,0.4,0.7,1,0.7,1.7c0,0.6-0.2,1.2-0.7,1.6
		c-0.5,0.4-1.1,0.7-1.9,0.7c-0.8,0-1.4-0.2-1.9-0.7c-0.5-0.4-0.7-1-0.7-1.6C197.1,287,197.3,286.5,197.8,286.1z M201.9,291.7v14.3
		h-4.4v-14.3H201.9z"/>
	<path class="st3" d="M214.4,292.9c1.1,0.9,1.8,2.1,2,3.6h-4.1c-0.1-0.6-0.4-1-0.8-1.4c-0.4-0.3-0.9-0.5-1.6-0.5
		c-0.5,0-0.9,0.1-1.1,0.3c-0.3,0.2-0.4,0.5-0.4,0.9c0,0.4,0.2,0.8,0.7,1c0.5,0.2,1.2,0.4,2.2,0.7c1.1,0.3,2,0.5,2.7,0.8
		c0.7,0.3,1.3,0.7,1.8,1.3c0.5,0.6,0.8,1.4,0.8,2.4c0,0.8-0.2,1.5-0.7,2.2c-0.4,0.6-1.1,1.1-1.9,1.5c-0.8,0.4-1.8,0.5-3,0.5
		c-1.9,0-3.5-0.4-4.6-1.3c-1.2-0.9-1.9-2.1-2.1-3.7h4.2c0.1,0.6,0.3,1.1,0.8,1.4c0.5,0.3,1,0.5,1.8,0.5c0.5,0,0.9-0.1,1.1-0.3
		c0.3-0.2,0.4-0.5,0.4-0.9c0-0.5-0.2-0.9-0.7-1.1c-0.5-0.2-1.2-0.4-2.3-0.7c-1.1-0.2-1.9-0.5-2.6-0.7c-0.7-0.3-1.3-0.7-1.8-1.2
		c-0.5-0.6-0.7-1.4-0.7-2.3c0-1.3,0.5-2.3,1.5-3.1c1-0.8,2.4-1.2,4.1-1.2C211.9,291.6,213.4,292,214.4,292.9z"/>
	<path class="st3" d="M228.7,292.9c1.1,0.9,1.8,2.1,2,3.6h-4.1c-0.1-0.6-0.4-1-0.8-1.4c-0.4-0.3-0.9-0.5-1.6-0.5
		c-0.5,0-0.9,0.1-1.1,0.3c-0.3,0.2-0.4,0.5-0.4,0.9c0,0.4,0.2,0.8,0.7,1c0.5,0.2,1.2,0.4,2.2,0.7c1.1,0.3,2,0.5,2.7,0.8
		c0.7,0.3,1.3,0.7,1.8,1.3c0.5,0.6,0.8,1.4,0.8,2.4c0,0.8-0.2,1.5-0.7,2.2c-0.4,0.6-1.1,1.1-1.9,1.5c-0.8,0.4-1.8,0.5-3,0.5
		c-1.9,0-3.5-0.4-4.6-1.3c-1.2-0.9-1.9-2.1-2.1-3.7h4.2c0.1,0.6,0.3,1.1,0.8,1.4c0.5,0.3,1,0.5,1.8,0.5c0.5,0,0.9-0.1,1.1-0.3
		c0.3-0.2,0.4-0.5,0.4-0.9c0-0.5-0.2-0.9-0.7-1.1c-0.5-0.2-1.2-0.4-2.3-0.7c-1.1-0.2-1.9-0.5-2.6-0.7c-0.7-0.3-1.3-0.7-1.8-1.2
		c-0.5-0.6-0.7-1.4-0.7-2.3c0-1.3,0.5-2.3,1.5-3.1c1-0.8,2.4-1.2,4.1-1.2C226.1,291.6,227.6,292,228.7,292.9z"/>
	<path class="st3" d="M233.7,286.1c0.5-0.4,1.1-0.7,1.9-0.7c0.8,0,1.4,0.2,1.9,0.7c0.5,0.4,0.7,1,0.7,1.7c0,0.6-0.2,1.2-0.7,1.6
		c-0.5,0.4-1.1,0.7-1.9,0.7c-0.8,0-1.4-0.2-1.9-0.7c-0.5-0.4-0.7-1-0.7-1.6C233,287,233.2,286.5,233.7,286.1z M237.7,291.7v14.3
		h-4.4v-14.3H237.7z"/>
	<path class="st3" d="M253.8,293.2c1,1.1,1.4,2.6,1.4,4.5v8.3h-4.4v-7.8c0-1-0.3-1.7-0.8-2.2c-0.5-0.5-1.2-0.8-2-0.8
		c-0.9,0-1.6,0.3-2.1,0.8c-0.5,0.6-0.8,1.4-0.8,2.4v7.6h-4.4v-14.3h4.4v2.6c0.4-0.9,1-1.5,1.8-2c0.8-0.5,1.8-0.7,2.9-0.7
		C251.5,291.6,252.8,292.1,253.8,293.2z"/>
	<path class="st3" d="M266.4,292.3c0.8,0.5,1.4,1.2,1.7,2v-2.6h4.4V306c0,1.3-0.3,2.5-0.8,3.6c-0.5,1.1-1.3,1.9-2.4,2.6
		c-1.1,0.6-2.4,0.9-3.9,0.9c-2.2,0-3.9-0.5-5.2-1.5c-1.3-1-2.1-2.4-2.3-4.1h4.3c0.1,0.6,0.4,1,0.9,1.4s1.1,0.5,1.9,0.5
		c0.9,0,1.6-0.3,2.2-0.8c0.6-0.5,0.8-1.4,0.8-2.5v-2.5c-0.4,0.9-1,1.5-1.7,2c-0.8,0.5-1.7,0.7-2.8,0.7c-1.2,0-2.2-0.3-3.2-0.9
		c-0.9-0.6-1.7-1.4-2.2-2.6c-0.5-1.1-0.8-2.4-0.8-3.9c0-1.5,0.3-2.8,0.8-3.9c0.5-1.1,1.3-1.9,2.2-2.5s2-0.9,3.2-0.9
		C264.6,291.6,265.6,291.8,266.4,292.3z M262.7,296.3c-0.6,0.6-0.9,1.5-0.9,2.6c0,1.1,0.3,1.9,0.9,2.6c0.6,0.6,1.3,0.9,2.3,0.9
		c0.9,0,1.7-0.3,2.3-0.9s0.9-1.5,0.9-2.5c0-1.1-0.3-1.9-0.9-2.6c-0.6-0.6-1.3-0.9-2.3-0.9C264,295.4,263.3,295.7,262.7,296.3z"/>
	<path class="st3" d="M182.4,323.2c0.9,0.6,1.7,1.4,2.2,2.5s0.8,2.4,0.8,3.9c0,1.5-0.3,2.8-0.8,3.9c-0.5,1.1-1.3,2-2.2,2.6
		c-0.9,0.6-2,0.9-3.2,0.9c-1.1,0-2-0.2-2.8-0.7c-0.8-0.5-1.4-1.2-1.7-2v9.4h-4.4v-21.1h4.4v2.6c0.4-0.9,0.9-1.5,1.7-2
		c0.8-0.5,1.7-0.7,2.8-0.7C180.4,322.3,181.5,322.6,182.4,323.2z M175.6,327.1c-0.6,0.6-0.9,1.5-0.9,2.6c0,1.1,0.3,1.9,0.9,2.5
		s1.3,0.9,2.3,0.9c0.9,0,1.7-0.3,2.3-0.9c0.6-0.6,0.9-1.5,0.9-2.6c0-1.1-0.3-1.9-0.9-2.6c-0.6-0.6-1.3-0.9-2.3-0.9
		C176.9,326.2,176.2,326.5,175.6,327.1z"/>
	<path class="st3" d="M196,323.1c0.8,0.5,1.4,1.2,1.7,2v-2.6h4.4v14.3h-4.4v-2.6c-0.4,0.9-1,1.5-1.7,2c-0.8,0.5-1.7,0.7-2.8,0.7
		c-1.2,0-2.2-0.3-3.2-0.9c-0.9-0.6-1.7-1.4-2.2-2.6c-0.5-1.1-0.8-2.4-0.8-3.9c0-1.5,0.3-2.8,0.8-3.9c0.5-1.1,1.3-1.9,2.2-2.5
		s2-0.9,3.2-0.9C194.3,322.3,195.2,322.6,196,323.1z M192.3,327.1c-0.6,0.6-0.9,1.5-0.9,2.6c0,1.1,0.3,1.9,0.9,2.6
		c0.6,0.6,1.3,0.9,2.3,0.9c0.9,0,1.7-0.3,2.3-0.9s0.9-1.5,0.9-2.5c0-1.1-0.3-1.9-0.9-2.6c-0.6-0.6-1.3-0.9-2.3-0.9
		C193.6,326.2,192.9,326.5,192.3,327.1z"/>
	<path class="st3" d="M213.4,323.1c0.8,0.5,1.4,1.2,1.7,2v-2.6h4.4v14.2c0,1.3-0.3,2.5-0.8,3.6c-0.5,1.1-1.3,1.9-2.4,2.6
		c-1.1,0.6-2.4,0.9-3.9,0.9c-2.2,0-3.9-0.5-5.2-1.5c-1.3-1-2.1-2.4-2.3-4.1h4.3c0.1,0.6,0.4,1,0.9,1.4s1.1,0.5,1.9,0.5
		c0.9,0,1.6-0.3,2.2-0.8c0.6-0.5,0.8-1.4,0.8-2.5v-2.5c-0.4,0.9-1,1.5-1.7,2c-0.8,0.5-1.7,0.7-2.8,0.7c-1.2,0-2.2-0.3-3.2-0.9
		c-0.9-0.6-1.7-1.4-2.2-2.6c-0.5-1.1-0.8-2.4-0.8-3.9c0-1.5,0.3-2.8,0.8-3.9c0.5-1.1,1.3-1.9,2.2-2.5s2-0.9,3.2-0.9
		C211.7,322.3,212.6,322.6,213.4,323.1z M209.7,327.1c-0.6,0.6-0.9,1.5-0.9,2.6c0,1.1,0.3,1.9,0.9,2.6c0.6,0.6,1.3,0.9,2.3,0.9
		c0.9,0,1.7-0.3,2.3-0.9s0.9-1.5,0.9-2.5c0-1.1-0.3-1.9-0.9-2.6c-0.6-0.6-1.3-0.9-2.3-0.9C211,326.2,210.3,326.5,209.7,327.1z"/>
	<path class="st3" d="M236,330.5h-9.9c0.1,1.1,0.3,1.9,0.8,2.3c0.5,0.5,1.1,0.7,1.9,0.7c0.6,0,1.2-0.2,1.6-0.5
		c0.4-0.3,0.7-0.7,0.8-1.3h4.6c-0.2,1-0.6,1.9-1.2,2.7c-0.6,0.8-1.4,1.4-2.4,1.9s-2.1,0.7-3.3,0.7c-1.4,0-2.6-0.3-3.7-0.9
		c-1.1-0.6-1.9-1.4-2.6-2.6c-0.6-1.1-0.9-2.4-0.9-3.9c0-1.5,0.3-2.8,0.9-3.9c0.6-1.1,1.5-1.9,2.6-2.5s2.3-0.9,3.7-0.9
		c1.4,0,2.7,0.3,3.7,0.9c1.1,0.6,1.9,1.4,2.5,2.4s0.9,2.3,0.9,3.6C236.1,329.7,236.1,330,236,330.5z M230.9,326.5
		c-0.5-0.5-1.2-0.7-1.9-0.7c-0.8,0-1.5,0.2-2,0.7c-0.5,0.5-0.8,1.2-0.9,2.1h5.6C231.7,327.7,231.4,327,230.9,326.5z"/>
</g>
<g>
</g>
<g>
</g>
<g>
</g>
<g>
</g>
<g>
</g>
</svg>
