<?xml version="1.0" encoding="utf-8"?>
<!-- Generator: Adobe Illustrator 22.1.0, SVG Export Plug-In . SVG Version: 6.00 Build 0)  -->
<svg version="1.1" id="a4fbd1e2-edc2-431c-b11d-f5395f4f8a37"
	 xmlns="http://www.w3.org/2000/svg" xmlns:xlink="http://www.w3.org/1999/xlink" x="0px" y="0px" viewBox="0 0 836.3 674.2"
	 style="enable-background:new 0 0 836.3 674.2;" xml:space="preserve">
<style type="text/css">
	.st0{fill:#BBDEFB;}
	.st1{opacity:0.5;fill:#007BFF;enable-background:new    ;}
	.st2{fill:#0D47A1;}
</style>
<title>fitting_pieces</title>
<circle class="st0" cx="452.7" cy="381.5" r="106.3"/>
<circle class="st1" cx="470" cy="365.9" r="106.3"/>
<rect x="202.2" y="272.6" class="st0" width="93.3" height="93.3"/>
<rect x="188.3" y="259.7" class="st1" width="93.3" height="93.3"/>
<path class="st2" d="M262.6,213.9v122.7H140V213.9L262.6,213.9L262.6,213.9z M260.9,334.8V215.6H141.7v119.2H260.9z"/>
<rect x="325.7" y="153.3" class="st0" width="86" height="83.2"/>
<rect x="333.8" y="136.2" class="st1" width="28.9" height="28"/>
<path class="st2" d="M486.4,186.5v39.7h-39.7v-39.7H486.4z M484.7,224.5v-36.3h-36.3v36.3H484.7z"/>
<path class="st2" d="M550,524c-72.9,0-132.2-59.3-132.2-132.2S477.1,259.7,550,259.7c72.9,0,132.2,59.3,132.2,132.2
	S622.9,524,550,524z M550,261.4c-72,0-130.5,58.5-130.5,130.5S478,522.3,550,522.3c72,0,130.5-58.5,130.5-130.5S622,261.4,550,261.4
	L550,261.4z"/>
</svg>
